<?xml version="1.0" encoding="UTF-8" standalone="no"?>
<!-- Created with Inkscape (http://www.inkscape.org/) -->

<svg
   xmlns:dc="http://purl.org/dc/elements/1.1/"
   xmlns:cc="http://creativecommons.org/ns#"
   xmlns:rdf="http://www.w3.org/1999/02/22-rdf-syntax-ns#"
   xmlns:svg="http://www.w3.org/2000/svg"
   xmlns="http://www.w3.org/2000/svg"
   xmlns:sodipodi="http://sodipodi.sourceforge.net/DTD/sodipodi-0.dtd"
   xmlns:inkscape="http://www.inkscape.org/namespaces/inkscape"
   id="svg2"
   version="1.1"
   inkscape:version="0.91 r13725"
   xml:space="preserve"
   width="582.34967"
   height="685.78931"
   viewBox="0 0 582.34967 685.78931"
   sodipodi:docname="mef_elements.svg"><metadata
     id="metadata8"><rdf:RDF><cc:Work
         rdf:about=""><dc:format>image/svg+xml</dc:format><dc:type
           rdf:resource="http://purl.org/dc/dcmitype/StillImage" /><dc:title></dc:title></cc:Work></rdf:RDF></metadata><defs
     id="defs6" /><sodipodi:namedview
     pagecolor="#ffffff"
     bordercolor="#666666"
     borderopacity="1"
     objecttolerance="10"
     gridtolerance="10"
     guidetolerance="10"
     inkscape:pageopacity="0"
     inkscape:pageshadow="2"
     inkscape:window-width="1366"
     inkscape:window-height="744"
     id="namedview4"
     showgrid="false"
     inkscape:zoom="0.89691211"
     inkscape:cx="492.98923"
     inkscape:cy="289.37052"
     inkscape:window-x="0"
     inkscape:window-y="24"
     inkscape:window-maximized="1"
     inkscape:current-layer="g12"
     fit-margin-top="0"
     fit-margin-left="0"
     fit-margin-right="0"
     fit-margin-bottom="0" /><g
     id="g10"
     inkscape:groupmode="layer"
     inkscape:label="MEF"
     transform="matrix(1.25,0,0,-1.25,-88.579831,955.36997)"><g
       id="g12"
       transform="scale(0.12,0.12)"><path
         d="m 733,6365.67 -55,-7 -49,-28 -28,-49 -7,-55 0,-4287 7,-49 28,-48 49,-28 55,-14 3047,0 49,14 49,28 27,48 14,49 0,4287 -14,55 -27,49 -49,28 -49,7 -3047,0"
         style="fill:#bebebe;fill-opacity:1;fill-rule:evenodd;stroke:none"
         id="path28"
         inkscape:connector-curvature="0" /><g
         id="g30"
         transform="scale(1.00029,-0.999712)"><path
           d="m 732.789,-6367.5 -54.984,7 -48.986,28.01 -27.992,49.01 -6.998,55.02 0,4288.23 6.998,49.02 27.992,48.01 48.986,28.01 54.984,14 3046.121,0 48.99,-14 48.98,-28.01 26.99,-48.01 14,-49.02 0,-4288.23 -14,-55.02 -26.99,-49.01 -48.98,-28.01 -48.99,-7 -3046.121,0 z"
           style="fill:none;stroke:#000000;stroke-width:6.93599987;stroke-linecap:round;stroke-linejoin:round;stroke-miterlimit:10;stroke-dasharray:none;stroke-opacity:1"
           id="path32"
           inkscape:connector-curvature="0" /></g><path
         d="m 830,4700.67 -55,-7 -49,-28 -27,-49 -7,-55 0,-2511 7,-49 27,-48 49,-28 55,-14 2846,0 49,14 49,28 27,48 14,49 0,2511 -14,55 -27,49 -49,28 -49,7 -2846,0"
         style="fill:#ffffff;fill-opacity:1;fill-rule:evenodd;stroke:none"
         id="path34"
         inkscape:connector-curvature="0" /><g
         id="g36"
         transform="scale(1.00029,-0.999712)"><path
           d="m 829.761,-4702.02 -54.984,7 -48.986,28.01 -26.993,49.01 -6.997,55.02 0,2511.72 6.997,49.01 26.993,48.02 48.986,28.01 54.984,14 2845.179,0 48.99,-14 48.98,-28.01 26.99,-48.02 14,-49.01 0,-2511.72 -14,-55.02 -26.99,-49.01 -48.98,-28.01 -48.99,-7 -2845.179,0 z"
           style="fill:none;stroke:#000000;stroke-width:6.93599987;stroke-linecap:round;stroke-linejoin:round;stroke-miterlimit:10;stroke-dasharray:none;stroke-opacity:1"
           id="path38"
           inkscape:connector-curvature="0" /></g><path
         d="m 935,4075.67 -56,-7 -49,-27 -27,-49 -7,-55 0,-1804 7,-49 27,-48 49,-28 56,-14 2644,0 49,14 48,28 28,48 14,49 0,1804 -14,55 -28,49 -48,27 -49,7 -2644,0"
         style="fill:#b6b6b6;fill-opacity:1;fill-rule:evenodd;stroke:none"
         id="path40"
         inkscape:connector-curvature="0" /><g
         id="g42"
         transform="scale(1.00029,-0.999712)"><path
           d="m 934.73,-4076.84 -55.983,7 -48.986,27.01 -26.992,49.01 -6.998,55.02 0,1804.52 6.998,49.01 26.992,48.01 48.986,28.01 55.983,14.01 2643.24,0 48.98,-14.01 47.99,-28.01 27.99,-48.01 14,-49.01 0,-1804.52 -14,-55.02 -27.99,-49.01 -47.99,-27.01 -48.98,-7 -2643.24,0 z"
           style="fill:none;stroke:#000000;stroke-width:6.93599987;stroke-linecap:round;stroke-linejoin:round;stroke-miterlimit:10;stroke-dasharray:none;stroke-opacity:1"
           id="path44"
           inkscape:connector-curvature="0" /></g><path
         d="m 1046,2834.67 -56,-7 -42,-35 -27,-42 -14,-55 0,-437 14,-56 27,-41 42,-28 56,-14 2429,0 56,14 41,28 28,41 14,56 0,437 -14,55 -28,42 -41,35 -56,7 -2429,0"
         style="fill:#ffffff;fill-opacity:1;fill-rule:evenodd;stroke:none"
         id="path46"
         inkscape:connector-curvature="0" /><g
         id="g48"
         transform="scale(1.00029,-0.999712)"><path
           d="m 1045.7,-2835.49 -55.985,7.01 -41.988,35.01 -26.993,42.01 -13.995,55.01 0,437.13 13.995,56.02 26.993,41.01 41.988,28.01 55.985,14 2428.3,0 55.98,-14 40.99,-28.01 27.99,-41.01 14,-56.02 0,-437.13 -14,-55.01 -27.99,-42.01 -40.99,-35.01 -55.98,-7.01 -2428.3,0 z"
           style="fill:none;stroke:#000000;stroke-width:6.93599987;stroke-linecap:round;stroke-linejoin:round;stroke-miterlimit:10;stroke-dasharray:none;stroke-opacity:1"
           id="path50"
           inkscape:connector-curvature="0" /></g><g
         id="g52"
         transform="scale(1.00029,-0.999712)"><path
           d="m 691.801,-5853.36 2921.159,0 0,943.28 -2921.159,0 0,-943.28 z"
           style="fill:none;stroke:#000000;stroke-width:6.93599987;stroke-linecap:round;stroke-linejoin:round;stroke-miterlimit:10;stroke-dasharray:0, 13.872;stroke-dashoffset:0;stroke-opacity:1"
           id="path54"
           inkscape:connector-curvature="0" /></g><g
         id="g56"
         transform="scale(8.33333,8.33333)"><text
           transform="matrix(0.944487,0,0,-1,277.92,660.56)"
           style="font-variant:normal;font-weight:normal;font-size:9.98904037px;font-family:Arial;-inkscape-font-specification:Arial;writing-mode:lr-tb;fill:#000000;fill-opacity:1;fill-rule:nonzero;stroke:none"
           id="text58"><tspan
             x="0 2.6664405 8.0011358 10.667577 13.210306 15.876747 21.211443 23.881226 26.547667 31.755308 37.979378 41.536785 46.744431 51.19128 56.525978 62.622993 65.292778 69.739624"
             y="0"
             sodipodi:role="line"
             id="tspan60">initiating-events,</tspan><tspan
             x="0 2.6664405 8.0011358 10.667577 13.210306 15.876747 21.211443 23.881226 26.547667 31.755308 37.979378 41.536785 46.744431 51.19128 56.525978 62.622993 65.292778 68.850182 74.057831 78.504608 83.839302 89.046944 95.271019"
             y="10.8"
             sodipodi:role="line"
             id="tspan62">initiating-event-groups</tspan></text>
</g><g
         id="g64"
         transform="scale(1.00029,-0.999712)"><path
           d="m 2259.35,-5645.3 936.73,0 0,298.09 -936.73,0 0,-298.09 z"
           style="fill:none;stroke:#000000;stroke-width:6.93599987;stroke-linecap:round;stroke-linejoin:round;stroke-miterlimit:10;stroke-dasharray:none;stroke-opacity:1"
           id="path66"
           inkscape:connector-curvature="0" /></g><g
         id="g68"
         transform="scale(8.33333,8.33333)"><text
           transform="matrix(0.944487,0,0,-1,111.36,665.48)"
           style="font-variant:normal;font-weight:normal;font-size:9.98904037px;font-family:Arial;-inkscape-font-specification:Arial;writing-mode:lr-tb;fill:#000000;fill-opacity:1;fill-rule:nonzero;stroke:none"
           id="text70"><tspan
             x="0 2.6664405 8.0011444 13.210315 15.880114 19.437523 24.772234 30.870773 33.540573 35.317642 41.414669 46.749382"
             y="0"
             sodipodi:role="line"
             id="tspan72">instructions</tspan><tspan
             x="50.313 55.522171 60.856884 66.191597 72.288628 77.623337 83.84742 89.056587 94.391304 99.600471"
             y="29.040001"
             sodipodi:role="line"
             id="tspan74">sequences,</tspan><tspan
             x="50.313 55.52066 59.967442 65.302155 70.509811 76.735413 82.070122 88.167152 92.614006"
             y="39.959999"
             sodipodi:role="line"
             id="tspan76">branches,</tspan><tspan
             x="50.313 53.870411 59.967442 61.744507 67.079224"
             y="50.759998"
             sodipodi:role="line"
             id="tspan78">rules</tspan></text>
</g><g
         id="g80"
         transform="scale(1.00029,-0.999712)"><path
           d="m 906.739,-5638.29 936.731,0 0,562.16 -936.731,0 0,-562.16 z"
           style="fill:none;stroke:#000000;stroke-width:6.93599987;stroke-linecap:round;stroke-linejoin:round;stroke-miterlimit:10;stroke-dasharray:none;stroke-opacity:1"
           id="path82"
           inkscape:connector-curvature="0" /></g><g
         id="g84"
         transform="scale(1.00029,-0.999712)"><path
           d="m 1065.69,-5534.26 0,208.06"
           style="fill:none;stroke:#000000;stroke-width:6.93599987;stroke-linecap:round;stroke-linejoin:round;stroke-miterlimit:10;stroke-dasharray:none;stroke-opacity:1"
           id="path86"
           inkscape:connector-curvature="0" /></g><path
         d="m 1066,5539.67 21,-21 -21,21 -20,-21 7,-7 13,14 14,-14 7,7"
         style="fill:#000000;fill-opacity:1;fill-rule:evenodd;stroke:none"
         id="path88"
         inkscape:connector-curvature="0" /><g
         id="g90"
         transform="scale(1.00029,-0.999712)"><path
           d="m 1065.69,-5326.2 215.94,0"
           style="fill:none;stroke:#000000;stroke-width:6.93599987;stroke-linecap:round;stroke-linejoin:round;stroke-miterlimit:10;stroke-dasharray:none;stroke-opacity:1"
           id="path92"
           inkscape:connector-curvature="0" /></g><g
         id="g94"
         transform="scale(8.33333,8.33333)"><text
           transform="matrix(0.944487,0,0,-1,289.68,734.6)"
           style="font-variant:normal;font-weight:normal;font-size:9.98904037px;font-family:Arial;-inkscape-font-specification:Arial;writing-mode:lr-tb;fill:#000000;fill-opacity:1;fill-rule:nonzero;stroke:none"
           id="text96"><tspan
             x="0 5.2091703 11.433238 16.640882 21.977104 27.3118 33.408813 38.743511 44.078205 50.17522 55.511444 60.719086 66.055313"
             y="0"
             sodipodi:role="line"
             id="tspan98">consequences,</tspan><tspan
             x="0 5.2091703 11.433238 16.640882 21.977104 27.3118 33.408813 38.743511 44.078205 50.17522 55.511444 60.719086 65.165871 70.500565 74.057976 80.154991 85.489685 90.697327"
             y="10.8"
             sodipodi:role="line"
             id="tspan100">consequence-groups</tspan></text>
</g><g
         id="g102"
         transform="scale(1.00029,-0.999712)"><path
           d="m 2357.32,-6269.48 943.73,0 0,298.09 -943.73,0 0,-298.09 z"
           style="fill:none;stroke:#000000;stroke-width:6.93599987;stroke-linecap:round;stroke-linejoin:round;stroke-miterlimit:10;stroke-dasharray:none;stroke-opacity:1"
           id="path104"
           inkscape:connector-curvature="0" /></g><g
         id="g106"
         transform="scale(8.33333,8.33333)"><text
           transform="matrix(0.944487,0,0,-1,277.92,614.72)"
           style="font-variant:normal;font-weight:normal;font-size:9.98904037px;font-family:Arial;-inkscape-font-specification:Arial;writing-mode:lr-tb;fill:#000000;fill-opacity:1;fill-rule:nonzero;stroke:none"
           id="text108"><tspan
             x="0 3.559155 8.8938503 14.101494 20.327093 22.996876 24.773945 30.870958 36.205654 41.540348 44.079735 47.637146 52.971844 57.418694 63.515709 68.850403 71.520187"
             y="0"
             sodipodi:role="line"
             id="tspan110">functional-events</tspan></text>
</g><g
         id="g112"
         transform="scale(1.00029,-0.999712)"><path
           d="m 2252.35,-5277.19 943.73,0 0,242.07 -943.73,0 0,-242.07 z"
           style="fill:none;stroke:#000000;stroke-width:6.93599987;stroke-linecap:round;stroke-linejoin:round;stroke-miterlimit:10;stroke-dasharray:none;stroke-opacity:1"
           id="path114"
           inkscape:connector-curvature="0" /></g><g
         id="g116"
         transform="scale(8.33333,8.33333)"><text
           transform="matrix(0.944487,0,0,-1,108,530.72)"
           style="font-variant:normal;font-weight:normal;font-size:9.98904037px;font-family:Arial;-inkscape-font-specification:Arial;writing-mode:lr-tb;fill:#000000;fill-opacity:1;fill-rule:nonzero;stroke:none"
           id="text118"><tspan
             x="0 8.0026636 14.988902 21.21611 24.77352 30.87055 34.427959 39.762672 45.859703"
             y="0"
             sodipodi:role="line"
             id="tspan120">CCF-group</tspan></text>
</g><g
         id="g122"
         transform="scale(1.00029,-0.999712)"><path
           d="m 802.769,-4605 623.821,0 0,320.1 -623.821,0 0,-320.1 z"
           style="fill:none;stroke:#000000;stroke-width:6.93599987;stroke-linecap:round;stroke-linejoin:round;stroke-miterlimit:10;stroke-dasharray:none;stroke-opacity:1"
           id="path124"
           inkscape:connector-curvature="0" /></g><g
         id="g126"
         transform="scale(8.33333,8.33333)"><text
           transform="matrix(0.944487,0,0,-1,281.28,409.16)"
           style="font-variant:normal;font-weight:normal;font-size:9.98904037px;font-family:Arial;-inkscape-font-specification:Arial;writing-mode:lr-tb;fill:#000000;fill-opacity:1;fill-rule:nonzero;stroke:none"
           id="text128"><tspan
             x="0 5.3346958 11.43171 14.101493 19.436188 24.772411"
             y="0"
             sodipodi:role="line"
             id="tspan130">gates,</tspan><tspan
             x="0 5.3346958 11.43171 16.766405 22.102629 27.310272 30.867682 37.091751 41.411549 46.746243 52.97031 54.750725 59.959892"
             y="10.8"
             sodipodi:role="line"
             id="tspan132">house-events,</tspan><tspan
             x="0 5.3346958 11.43171 15.878562 18.545002 24.770601 28.200958 33.535652 37.982506 44.079521 49.414215 52.084"
             y="21.6"
             sodipodi:role="line"
             id="tspan134">basic-events</tspan><tspan
             x="-44.976799 -37.861748 -32.654106 -26.430037 -24.652967 -19.445326 -14.110629 -7.8865614 -5.2167788 -1.7846775 3.5500183 7.996799 15.874007 21.208704 22.985771 29.082787"
             y="-24.120001"
             sodipodi:role="line"
             id="tspan136">Boolean formulae</tspan></text>
</g><g
         id="g138"
         transform="scale(1.00029,-0.999712)"><path
           d="m 1947.44,-3757.75 936.73,0 0,631.18 -936.73,0 0,-631.18 z"
           style="fill:none;stroke:#000000;stroke-width:6.93599987;stroke-linecap:round;stroke-linejoin:round;stroke-miterlimit:10;stroke-dasharray:none;stroke-opacity:1"
           id="path140"
           inkscape:connector-curvature="0" /></g><g
         id="g142"
         transform="scale(1.00029,-0.999712)"><path
           d="m 2155.38,-3570.7 0,139.04"
           style="fill:none;stroke:#000000;stroke-width:6.93599987;stroke-linecap:round;stroke-linejoin:round;stroke-miterlimit:10;stroke-dasharray:none;stroke-opacity:1"
           id="path144"
           inkscape:connector-curvature="0" /></g><path
         d="m 2156,3576.67 21,-21 -21,21 -21,-21 0,-7 21,21 14,-21 7,7"
         style="fill:#000000;fill-opacity:1;fill-rule:evenodd;stroke:none"
         id="path146"
         inkscape:connector-curvature="0" /><g
         id="g148"
         transform="scale(1.00029,-0.999712)"><path
           d="m 2148.38,-3431.66 152.96,0"
           style="fill:none;stroke:#000000;stroke-width:6.93599987;stroke-linecap:round;stroke-linejoin:round;stroke-miterlimit:10;stroke-dasharray:none;stroke-opacity:1"
           id="path150"
           inkscape:connector-curvature="0" /></g><g
         id="g152"
         transform="scale(8.33333,8.33333)"><text
           transform="matrix(0.944487,0,0,-1,248.76,314.24)"
           style="font-variant:normal;font-weight:normal;font-size:9.98904037px;font-family:Arial;-inkscape-font-specification:Arial;writing-mode:lr-tb;fill:#000000;fill-opacity:1;fill-rule:nonzero;stroke:none"
           id="text154"><tspan
             x="0 5.3362231 8.0060062 13.340701 18.549871 24.773939 29.981583 35.317806 37.987591 39.764656 45.863197 48.532978 54.757046 59.076843 64.411537 67.968948 74.065964 78.512817 83.849037 86.51548 91.723122 97.947189"
             y="0"
             sodipodi:role="line"
             id="tspan156">stochastic expressions</tspan><tspan
             x="27.443501 32.651142 38.87521 42.432621 47.640263 56.533897 61.741539 64.411324 69.746017 73.303429"
             y="29.16"
             sodipodi:role="line"
             id="tspan158">parameters</tspan></text>
</g><g
         id="g160"
         transform="scale(1.00029,-0.999712)"><path
           d="m 2044.41,-2717.45 902.74,0 0,423.12 -902.74,0 0,-423.12 z"
           style="fill:none;stroke:#000000;stroke-width:6.93599987;stroke-linecap:round;stroke-linejoin:round;stroke-miterlimit:10;stroke-dasharray:none;stroke-opacity:1"
           id="path162"
           inkscape:connector-curvature="0" /></g><g
         id="g164"
         transform="scale(1.00029,-0.999712)"><path
           d="m 2419.3,-3126.57 0,402.12"
           style="fill:none;stroke:#000000;stroke-width:6.93599987;stroke-linecap:round;stroke-linejoin:round;stroke-miterlimit:10;stroke-dasharray:none;stroke-opacity:1"
           id="path166"
           inkscape:connector-curvature="0" /></g><path
         d="m 2420,2716.67 -21,20 21,-20 21,20 -7,7 -14,-13 -14,13 -7,-7"
         style="fill:#000000;fill-opacity:1;fill-rule:evenodd;stroke:none"
         id="path168"
         inkscape:connector-curvature="0" /><g
         id="g170"
         transform="scale(1.00029,-0.999712)"><path
           d="m 2891.17,-3653.72 506.85,0"
           style="fill:none;stroke:#000000;stroke-width:6.93599987;stroke-linecap:round;stroke-linejoin:round;stroke-miterlimit:10;stroke-dasharray:none;stroke-opacity:1"
           id="path172"
           inkscape:connector-curvature="0" /></g><path
         d="m 2885,3652.67 21,21 -21,-21 21,-21 7,7 -14,14 14,21 -7,0"
         style="fill:#000000;fill-opacity:1;fill-rule:evenodd;stroke:none"
         id="path174"
         inkscape:connector-curvature="0" /><g
         id="g176"
         transform="scale(1.00029,-0.999712)"><path
           d="m 2953.15,-2620.42 444.87,0"
           style="fill:none;stroke:#000000;stroke-width:6.93599987;stroke-linecap:round;stroke-linejoin:round;stroke-miterlimit:10;stroke-dasharray:none;stroke-opacity:1"
           id="path178"
           inkscape:connector-curvature="0" /></g><path
         d="m 2948,2619.67 20,20 -20,-20 20,-21 7,7 -21,14 21,20 -7,0"
         style="fill:#000000;fill-opacity:1;fill-rule:evenodd;stroke:none"
         id="path180"
         inkscape:connector-curvature="0" /><g
         id="g182"
         transform="scale(1.00029,-0.999712)"><path
           d="m 1732.5,-3972.81 1352.61,0 0,1776.51 -1352.61,0 0,-1776.51 z"
           style="fill:none;stroke:#000000;stroke-width:6.93599987;stroke-linecap:round;stroke-linejoin:round;stroke-miterlimit:10;stroke-dasharray:0, 13.872;stroke-dashoffset:0;stroke-opacity:1"
           id="path184"
           inkscape:connector-curvature="0" /></g><g
         id="g186"
         transform="scale(8.33333,8.33333)"><text
           transform="matrix(0.944487,0,0,-1,316.32,464.96)"
           style="font-variant:normal;font-weight:normal;font-size:9.98904037px;font-family:Arial;-inkscape-font-specification:Arial;writing-mode:lr-tb;fill:#000000;fill-opacity:1;fill-rule:nonzero;stroke:none"
           id="text188"><tspan
             x="0 3.4321012 8.7667971 14.101493 15.878561 18.421291 22.868073 24.648483 29.095264 34.302906 39.637604"
             y="0"
             sodipodi:role="line"
             id="tspan190">fault-trees</tspan><tspan
             x="65.1782 70.512894 74.959747 81.056763 86.391457 89.061241 92.4916 95.161377 98.718788 104.94286 110.1505"
             y="-225.60001"
             sodipodi:role="line"
             id="tspan192">event-trees</tspan><tspan
             x="181.6862 186.89537 189.56519 194.89992 200.10909 206.33318 211.66791 216.87708 219.54689 221.32393"
             y="137.39999"
             sodipodi:role="line"
             id="tspan194">stochastic</tspan><tspan
             x="181.6862 183.33621 189.56032 194.89653 200.10422"
             y="148.2"
             sodipodi:role="line"
             id="tspan196">layer</tspan><tspan
             x="179.0181 182.4502 187.78491 193.11964 194.89668 197.43944 200.99863 203.66844 207.22583 212.4335"
             y="1.6799999"
             sodipodi:role="line"
             id="tspan198">fault tree</tspan><tspan
             x="179.0181 180.79515 186.8922 192.22842 197.4361"
             y="12.48"
             sodipodi:role="line"
             id="tspan200">layer</tspan><tspan
             x="180.79683 186.0045 190.45135 196.67546 201.88313 204.55295 207.22276 209.89256 214.21227 219.547 224.88173"
             y="-268.79999"
             sodipodi:role="line"
             id="tspan202">event trees</tspan><tspan
             x="180.79683 182.44684 188.67094 194.00717 199.21484"
             y="-258"
             sodipodi:role="line"
             id="tspan204">layer</tspan></text>
</g><g
         id="g206"
         transform="scale(1.00029,-0.999712)"><path
           d="m 1107.68,-3598.71 825.76,0"
           style="fill:none;stroke:#000000;stroke-width:6.93599987;stroke-linecap:round;stroke-linejoin:round;stroke-miterlimit:10;stroke-dasharray:none;stroke-opacity:1"
           id="path208"
           inkscape:connector-curvature="0" /></g><path
         d="m 1941,3590.67 -21,-14 21,14 -21,27 0,-6 14,-14 -14,-21 0,0"
         style="fill:#000000;fill-opacity:1;fill-rule:evenodd;stroke:none"
         id="path210"
         inkscape:connector-curvature="0" /><g
         id="g212"
         transform="scale(1.00029,-0.999712)"><path
           d="m 2155.38,-2404.36 0,-195.06"
           style="fill:none;stroke:#000000;stroke-width:6.93599987;stroke-linecap:round;stroke-linejoin:round;stroke-miterlimit:10;stroke-dasharray:none;stroke-opacity:1"
           id="path214"
           inkscape:connector-curvature="0" /></g><path
         d="m 2156,2605.67 21,-21 -21,21 -21,-21 7,-7 14,14 14,-14 7,7"
         style="fill:#000000;fill-opacity:1;fill-rule:evenodd;stroke:none"
         id="path216"
         inkscape:connector-curvature="0" /><g
         id="g218"
         transform="scale(1.00029,-0.999712)"><path
           d="m 2155.38,-2404.36 96.97,0"
           style="fill:none;stroke:#000000;stroke-width:6.93599987;stroke-linecap:round;stroke-linejoin:round;stroke-miterlimit:10;stroke-dasharray:none;stroke-opacity:1"
           id="path220"
           inkscape:connector-curvature="0" /></g><g
         id="g222"
         transform="scale(1.00029,-0.999712)"><path
           d="m 1107.68,-2613.42 929.73,0"
           style="fill:none;stroke:#000000;stroke-width:6.93599987;stroke-linecap:round;stroke-linejoin:round;stroke-miterlimit:10;stroke-dasharray:none;stroke-opacity:1"
           id="path224"
           inkscape:connector-curvature="0" /></g><path
         d="m 2045,2612.67 -21,-21 21,21 -21,20 -7,-7 21,-13 -21,-14 7,-7"
         style="fill:#000000;fill-opacity:1;fill-rule:evenodd;stroke:none"
         id="path226"
         inkscape:connector-curvature="0" /><g
         id="g228"
         transform="scale(8.33333,8.33333)"><text
           transform="matrix(0.944487,0,0,-1,206.28,531.56)"
           style="font-variant:normal;font-weight:normal;font-size:9.98904037px;font-family:Arial;-inkscape-font-specification:Arial;writing-mode:lr-tb;fill:#000000;fill-opacity:1;fill-rule:nonzero;stroke:none"
           id="text230"><tspan
             x="0 5.3362231 10.670935 15.878594 21.214817 23.884615 26.551056 29.093801 34.428513 37.098312 39.764751 44.972397 50.307091"
             y="0"
             sodipodi:role="line"
             id="tspan232">substitutions</tspan></text>
</g><g
         id="g234"
         transform="scale(1.00029,-0.999712)"><path
           d="m 1628.53,-4605 630.82,0 0,313.09 -630.82,0 0,-313.09 z"
           style="fill:none;stroke:#000000;stroke-width:6.93599987;stroke-linecap:round;stroke-linejoin:round;stroke-miterlimit:10;stroke-dasharray:none;stroke-opacity:1"
           id="path236"
           inkscape:connector-curvature="0" /></g><g
         id="g238"
         transform="scale(8.33333,8.33333)"><text
           transform="matrix(0.944487,0,0,-1,485.4,540.68)"
           style="font-variant:normal;font-weight:normal;font-size:9.98904037px;font-family:Arial;-inkscape-font-specification:Arial;writing-mode:lr-tb;fill:#000000;fill-opacity:1;fill-rule:nonzero;stroke:none"
           id="text240"><tspan
             x="0 7.8772392 14.101338 15.881781 21.978827 25.536205 27.313242 33.410286 38.745014 41.411423 46.747646 52.844692"
             y="0"
             sodipodi:role="line"
             id="tspan242">meta-logical</tspan><tspan
             x="0 1.7770683 7.8741136 13.210337 18.418011"
             y="10.8"
             sodipodi:role="line"
             id="tspan244">layer</tspan></text>
</g><g
         id="g246"
         transform="scale(1.00029,-0.999712)"><path
           d="m 3405.02,-4972.1 -7,2351.68"
           style="fill:none;stroke:#000000;stroke-width:6.93599987;stroke-linecap:round;stroke-linejoin:round;stroke-miterlimit:10;stroke-dasharray:none;stroke-opacity:1"
           id="path248"
           inkscape:connector-curvature="0" /></g><g
         id="g250"
         transform="scale(1.00029,-0.999712)"><path
           d="m 1107.68,-4291.91 0,1678.49"
           style="fill:none;stroke:#000000;stroke-width:6.93599987;stroke-linecap:round;stroke-linejoin:round;stroke-miterlimit:10;stroke-dasharray:none;stroke-opacity:1"
           id="path252"
           inkscape:connector-curvature="0" /></g><g
         id="g254"
         transform="scale(1.00029,-0.999712)"><path
           d="m 1107.68,-4180.87 839.76,0"
           style="fill:none;stroke:#000000;stroke-width:6.93599987;stroke-linecap:round;stroke-linejoin:round;stroke-miterlimit:10;stroke-dasharray:none;stroke-opacity:1"
           id="path256"
           inkscape:connector-curvature="0" /></g><g
         id="g258"
         transform="scale(1.00029,-0.999712)"><path
           d="m 1947.44,-4291.91 0,111.04"
           style="fill:none;stroke:#000000;stroke-width:6.93599987;stroke-linecap:round;stroke-linejoin:round;stroke-miterlimit:10;stroke-dasharray:none;stroke-opacity:1"
           id="path260"
           inkscape:connector-curvature="0" /></g><g
         id="g262"
         transform="scale(1.00029,-0.999712)"><path
           d="m 4028.84,-2731.46 -408.88,118.04"
           style="fill:none;stroke:#000000;stroke-width:6.93599987;stroke-linecap:round;stroke-linejoin:round;stroke-miterlimit:10;stroke-dasharray:none;stroke-opacity:1"
           id="path264"
           inkscape:connector-curvature="0" /></g><g
         id="g266"
         transform="scale(1.00029,-0.999712)"><path
           d="m 4028.84,-3868.78 -304.91,69.02"
           style="fill:none;stroke:#000000;stroke-width:6.93599987;stroke-linecap:round;stroke-linejoin:round;stroke-miterlimit:10;stroke-dasharray:none;stroke-opacity:1"
           id="path268"
           inkscape:connector-curvature="0" /></g><g
         id="g270"
         transform="scale(1.00029,-0.999712)"><path
           d="m 3806.9,-4423.94 228.94,-70.02"
           style="fill:none;stroke:#000000;stroke-width:6.93599987;stroke-linecap:round;stroke-linejoin:round;stroke-miterlimit:10;stroke-dasharray:none;stroke-opacity:1"
           id="path272"
           inkscape:connector-curvature="0" /></g><g
         id="g274"
         transform="scale(1.00029,-0.999712)"><path
           d="m 4049.83,-6096.43 -131.96,42.02"
           style="fill:none;stroke:#000000;stroke-width:6.93599987;stroke-linecap:round;stroke-linejoin:round;stroke-miterlimit:10;stroke-dasharray:none;stroke-opacity:1"
           id="path276"
           inkscape:connector-curvature="0" /></g><g
         id="g278"
         transform="scale(1.00029,-0.999712)"><path
           d="m 1531.56,-5076.13 0,104.03"
           style="fill:none;stroke:#000000;stroke-width:6.93599987;stroke-linecap:round;stroke-linejoin:round;stroke-miterlimit:10;stroke-dasharray:none;stroke-opacity:1"
           id="path280"
           inkscape:connector-curvature="0" /></g><g
         id="g282"
         transform="scale(1.00029,-0.999712)"><path
           d="m 1531.56,-4972.1 1873.46,0"
           style="fill:none;stroke:#000000;stroke-width:6.93599987;stroke-linecap:round;stroke-linejoin:round;stroke-miterlimit:10;stroke-dasharray:none;stroke-opacity:1"
           id="path284"
           inkscape:connector-curvature="0" /></g><g
         id="g286"
         transform="scale(1.00029,-0.999712)"><path
           d="m 1843.47,-5534.26 415.88,0"
           style="fill:none;stroke:#000000;stroke-width:6.93599987;stroke-linecap:round;stroke-linejoin:round;stroke-miterlimit:10;stroke-dasharray:none;stroke-opacity:1"
           id="path288"
           inkscape:connector-curvature="0" /></g><path
         d="m 1844,5532.67 21,21 -21,-21 21,-21 0,7 -14,14 14,21 0,0"
         style="fill:#000000;fill-opacity:1;fill-rule:evenodd;stroke:none"
         id="path290"
         inkscape:connector-curvature="0" /><path
         d="m 2260,5532.67 -20,-21 20,21 -20,21 -7,0 13,-21 -13,-14 7,-7"
         style="fill:#000000;fill-opacity:1;fill-rule:evenodd;stroke:none"
         id="path292"
         inkscape:connector-curvature="0" /><g
         id="g294"
         transform="scale(1.00029,-0.999712)"><path
           d="m 2051.41,-5534.26 0,375.1"
           style="fill:none;stroke:#000000;stroke-width:6.93599987;stroke-linecap:round;stroke-linejoin:round;stroke-miterlimit:10;stroke-dasharray:none;stroke-opacity:1"
           id="path296"
           inkscape:connector-curvature="0" /></g><g
         id="g298"
         transform="scale(1.00029,-0.999712)"><path
           d="m 2051.41,-5159.16 207.94,0"
           style="fill:none;stroke:#000000;stroke-width:6.93599987;stroke-linecap:round;stroke-linejoin:round;stroke-miterlimit:10;stroke-dasharray:none;stroke-opacity:1"
           id="path300"
           inkscape:connector-curvature="0" /></g><path
         d="m 2260,5157.67 -20,-20 20,20 -20,21 -7,0 13,-21 -13,-13 7,-7"
         style="fill:#000000;fill-opacity:1;fill-rule:evenodd;stroke:none"
         id="path302"
         inkscape:connector-curvature="0" /><g
         id="g304"
         transform="scale(8.33333,8.33333)"><text
           transform="matrix(0.944487,0,0,-1,106.32,735.44)"
           style="font-variant:normal;font-weight:normal;font-size:9.98904037px;font-family:Arial;-inkscape-font-specification:Arial;writing-mode:lr-tb;fill:#000000;fill-opacity:1;fill-rule:nonzero;stroke:none"
           id="text306"><tspan
             x="0 8.0042686 10.670709 15.879888 20.32674 22.993179 29.217262 34.424923 39.761147"
             y="0"
             sodipodi:role="line"
             id="tspan308">missions,</tspan><tspan
             x="0 5.3347039 11.55878 16.76643 22.102654 27.437366"
             y="10.8"
             sodipodi:role="line"
             id="tspan310">phases</tspan></text>
</g><g
         id="g312"
         transform="scale(1.00029,-0.999712)"><path
           d="m 802.769,-6262.47 686.801,0 0,291.08 -686.801,0 0,-291.08 z"
           style="fill:none;stroke:#000000;stroke-width:6.93599987;stroke-linecap:round;stroke-linejoin:round;stroke-miterlimit:10;stroke-dasharray:none;stroke-opacity:1"
           id="path314"
           inkscape:connector-curvature="0" /></g><g
         id="g316"
         transform="scale(1.00029,-0.999712)"><path
           d="m 2572.26,-5971.39 -832.76,333.1"
           style="fill:none;stroke:#000000;stroke-width:6.93599987;stroke-linecap:round;stroke-linejoin:round;stroke-miterlimit:10;stroke-dasharray:none;stroke-opacity:1"
           id="path318"
           inkscape:connector-curvature="0" /></g><path
         d="m 1740,5636.67 7,28 -7,-28 21,-7 7,7 -21,7 7,21 -7,0"
         style="fill:#000000;fill-opacity:1;fill-rule:evenodd;stroke:none"
         id="path320"
         inkscape:connector-curvature="0" /><g
         id="g322"
         transform="scale(1.00029,-0.999712)"><path
           d="m 2572.26,-5971.39 -145.96,333.1"
           style="fill:none;stroke:#000000;stroke-width:6.93599987;stroke-linecap:round;stroke-linejoin:round;stroke-miterlimit:10;stroke-dasharray:none;stroke-opacity:1"
           id="path324"
           inkscape:connector-curvature="0" /></g><path
         d="m 2427,5636.67 -14,28 14,-28 21,14 0,7 -21,-7 -7,21 -7,-7"
         style="fill:#000000;fill-opacity:1;fill-rule:evenodd;stroke:none"
         id="path326"
         inkscape:connector-curvature="0" /><g
         id="g328"
         transform="scale(1.00029,-0.999712)"><path
           d="m 1114.68,-5971.39 207.94,333.1"
           style="fill:none;stroke:#000000;stroke-width:6.93599987;stroke-linecap:round;stroke-linejoin:round;stroke-miterlimit:10;stroke-dasharray:none;stroke-opacity:1"
           id="path330"
           inkscape:connector-curvature="0" /></g><path
         d="m 1323,5636.67 -34,7 34,-7 0,35 -7,0 0,-21 -20,0 -7,-7"
         style="fill:#000000;fill-opacity:1;fill-rule:evenodd;stroke:none"
         id="path332"
         inkscape:connector-curvature="0" /></g></g></svg>