<?xml version="1.0" encoding="UTF-8" standalone="no"?>
<svg
   xmlns:dc="http://purl.org/dc/elements/1.1/"
   xmlns:cc="http://creativecommons.org/ns#"
   xmlns:rdf="http://www.w3.org/1999/02/22-rdf-syntax-ns#"
   xmlns:svg="http://www.w3.org/2000/svg"
   xmlns="http://www.w3.org/2000/svg"
   viewBox="0 0 342.37729 208.45874"
   height="208.45874"
   width="342.37729"
   xml:space="preserve"
   version="1.1"
   id="svg2"><metadata
     id="metadata8"><rdf:RDF><cc:Work
         rdf:about=""><dc:format>image/svg+xml</dc:format><dc:type
           rdf:resource="http://purl.org/dc/dcmitype/StillImage" /><dc:title></dc:title></cc:Work></rdf:RDF></metadata><defs
     id="defs6"><clipPath
       id="clipPath312"
       clipPathUnits="userSpaceOnUse"><path
         style="clip-rule:evenodd"
         id="path314"
         d="m 1703,1086.67 0,-116.002 386,0 0,116.002 -43,0 0,-115.002 -300,0 0,115.002 -43,0 z" /></clipPath><clipPath
       id="clipPath330"
       clipPathUnits="userSpaceOnUse"><path
         style="clip-rule:evenodd"
         id="path332"
         d="m 2093,1086.67 0,-116.002 386,0 0,116.002 -43,0 0,-115.002 -300,0 0,115.002 -43,0 z" /></clipPath><clipPath
       id="clipPath348"
       clipPathUnits="userSpaceOnUse"><path
         style="clip-rule:evenodd"
         id="path350"
         d="m 2483,1086.67 0,-116.002 386,0 0,116.002 -43,0 0,-115.002 -300,0 0,115.002 -43,0 z" /></clipPath><clipPath
       id="clipPath366"
       clipPathUnits="userSpaceOnUse"><path
         style="clip-rule:evenodd"
         id="path368"
         d="m 2873,1086.67 0,-116.002 386,0 0,116.002 -43,0 0,-115.002 -300,0 0,115.002 -43,0 z" /></clipPath><clipPath
       id="clipPath456"
       clipPathUnits="userSpaceOnUse"><path
         id="path458"
         d="m 2435,847.668 44,0 0,-114 -44,0 0,114 z" /></clipPath><clipPath
       id="clipPath502"
       clipPathUnits="userSpaceOnUse"><path
         id="path504"
         d="m 2435,728.668 44,0 0,-114 -44,0 0,114 z" /></clipPath><clipPath
       id="clipPath518"
       clipPathUnits="userSpaceOnUse"><path
         id="path520"
         d="m 3215,728.668 44,0 0,-114 -44,0 0,114 z" /></clipPath></defs><g
     transform="matrix(1.25,0,0,-1.25,-197.11443,848.30865)"
     id="g10"><g
       transform="scale(0.12,0.12)"
       id="g12"><g
         transform="scale(8.33333,8.33333)"
         id="g14" /><g
         transform="scale(1.00368,-0.996318)"
         id="g38"><path
           id="path40"
           style="fill:none;stroke:#000000;stroke-width:8.55449963;stroke-linecap:round;stroke-linejoin:round;stroke-miterlimit:10;stroke-dasharray:none;stroke-opacity:1"
           d="m 2897.33,-5292.16 0,282.04" /></g><g
         transform="scale(8.33333,8.33333)"
         id="g42"><text
           id="text44"
           style="font-variant:normal;font-weight:normal;font-size:12.27470016px;font-family:'Times New Roman';-inkscape-font-specification:TimesNewRoman;writing-mode:lr-tb;fill:#000000;fill-opacity:1;fill-rule:nonzero;stroke:none"
           transform="matrix(0.837852,0,0,-1,417.12,629.6)"><tspan
             id="tspan46"
             y="0"
             x="0 6.0135398">S1</tspan><tspan
             id="tspan48"
             y="33.720001"
             x="0 6.0135398">S2</tspan></text>
</g><g
         transform="scale(1.00368,-0.996318)"
         id="g50"><path
           id="path52"
           style="fill:none;stroke:#000000;stroke-width:8.55449963;stroke-linecap:round;stroke-linejoin:round;stroke-miterlimit:10;stroke-dasharray:none;stroke-opacity:1"
           d="m 2392.19,-5010.12 0,333.23" /></g><g
         transform="scale(8.33333,8.33333)"
         id="g54"><text
           id="text56"
           style="font-variant:normal;font-weight:normal;font-size:12.27470016px;font-family:'Times New Roman';-inkscape-font-specification:TimesNewRoman;writing-mode:lr-tb;fill:#000000;fill-opacity:1;fill-rule:nonzero;stroke:none"
           transform="matrix(0.837852,0,0,-1,416.04,554.96)"><tspan
             id="tspan58"
             y="0"
             x="0 6.1567636">S5</tspan><tspan
             id="tspan60"
             y="35.759998"
             x="-2.4347999 3.7219636">S6</tspan></text>
</g><path
         id="path62"
         style="fill:#000000;fill-opacity:1;fill-rule:evenodd;stroke:none"
         d="m 1740,5272.67 -17,17 -17,-17 17,-17 17,17" /><g
         transform="scale(1.00368,-0.996318)"
         id="g64"><path
           id="path66"
           style="fill:none;stroke:#000000;stroke-width:8.55449963;stroke-linecap:round;stroke-linejoin:round;stroke-miterlimit:10;stroke-dasharray:none;stroke-opacity:1"
           d="m 1733.62,-5292.16 -16.94,-17.06 -16.94,17.06 16.94,17.07 16.94,-17.07 z" /></g><g
         transform="scale(8.33333,8.33333)"
         id="g68"><text
           id="text70"
           style="font-variant:normal;font-weight:normal;font-size:10.28444862px;font-family:'Times New Roman';-inkscape-font-specification:TimesNewRoman;writing-mode:lr-tb;fill:#000000;fill-opacity:1;fill-rule:nonzero;stroke:none"
           transform="matrix(1,0,0,-0.99456965,204.72,618.32)"><tspan
             id="tspan72"
             y="0"
             x="0">1</tspan></text>
</g><path
         id="path74"
         style="fill:#000000;fill-opacity:1;fill-rule:evenodd;stroke:none"
         d="m 2805,5272.67 -17,17 -9,-17 9,-17 17,17" /><g
         transform="scale(1.00368,-0.996318)"
         id="g76"><path
           id="path78"
           style="fill:none;stroke:#000000;stroke-width:8.55449963;stroke-linecap:round;stroke-linejoin:round;stroke-miterlimit:10;stroke-dasharray:none;stroke-opacity:1"
           d="m 2794.71,-5292.16 -16.94,-17.06 -8.97,17.06 8.97,17.07 16.94,-17.07 z" /></g><path
         id="path80"
         style="fill:#000000;fill-opacity:1;fill-rule:evenodd;stroke:none"
         d="m 3415,5272.67 -17,17 -17,-17 17,-17 17,17" /><g
         transform="scale(1.00368,-0.996318)"
         id="g82"><path
           id="path84"
           style="fill:none;stroke:#000000;stroke-width:8.55449963;stroke-linecap:round;stroke-linejoin:round;stroke-miterlimit:10;stroke-dasharray:none;stroke-opacity:1"
           d="m 3402.47,-5292.16 -16.94,-17.06 -16.93,17.06 16.93,17.07 16.94,-17.07 z" /></g><path
         id="path86"
         style="fill:#000000;fill-opacity:1;fill-rule:evenodd;stroke:none"
         d="m 3415,4991.67 -17,17 -9,-17 9,-17 17,17" /><g
         transform="scale(1.00368,-0.996318)"
         id="g88"><path
           id="path90"
           style="fill:none;stroke:#000000;stroke-width:8.55449963;stroke-linecap:round;stroke-linejoin:round;stroke-miterlimit:10;stroke-dasharray:none;stroke-opacity:1"
           d="m 3402.47,-5010.12 -16.94,-17.06 -8.96,17.06 8.96,17.07 16.94,-17.07 z" /></g><path
         id="path92"
         style="fill:#000000;fill-opacity:1;fill-rule:evenodd;stroke:none"
         d="m 2281,4982.67 -8,18 -18,-18 18,-8 8,8" /><g
         transform="scale(1.00368,-0.996318)"
         id="g94"><path
           id="path96"
           style="fill:none;stroke:#000000;stroke-width:8.55449963;stroke-linecap:round;stroke-linejoin:round;stroke-miterlimit:10;stroke-dasharray:none;stroke-opacity:1"
           d="m 2272.63,-5001.08 -7.97,-18.07 -17.93,18.07 17.93,8.03 7.97,-8.03 z" /></g><path
         id="path98"
         style="fill:#000000;fill-opacity:1;fill-rule:evenodd;stroke:none"
         d="m 2805,4650.67 -9,17 -17,-17 17,-8 9,8" /><g
         transform="scale(1.00368,-0.996318)"
         id="g100"><path
           id="path102"
           style="fill:none;stroke:#000000;stroke-width:8.55449963;stroke-linecap:round;stroke-linejoin:round;stroke-miterlimit:10;stroke-dasharray:none;stroke-opacity:1"
           d="m 2794.71,-4667.86 -8.97,-17.06 -16.94,17.06 16.94,8.03 8.97,-8.03 z" /></g><path
         id="path104"
         style="fill:#000000;fill-opacity:1;fill-rule:evenodd;stroke:none"
         d="m 3406,4650.67 -8,17 -17,-17 17,-8 8,8" /><g
         transform="scale(1.00368,-0.996318)"
         id="g106"><path
           id="path108"
           style="fill:none;stroke:#000000;stroke-width:8.55449963;stroke-linecap:round;stroke-linejoin:round;stroke-miterlimit:10;stroke-dasharray:none;stroke-opacity:1"
           d="m 3393.5,-4667.86 -7.97,-17.06 -16.93,17.06 16.93,8.03 7.97,-8.03 z" /></g><path
         id="path110"
         style="fill:#000000;fill-opacity:1;fill-rule:evenodd;stroke:none"
         d="m 3415,4360.67 -17,17 -17,-17 17,-17 17,17" /><g
         transform="scale(1.00368,-0.996318)"
         id="g112"><path
           id="path114"
           style="fill:none;stroke:#000000;stroke-width:8.55449963;stroke-linecap:round;stroke-linejoin:round;stroke-miterlimit:10;stroke-dasharray:none;stroke-opacity:1"
           d="m 3402.47,-4376.78 -16.94,-17.07 -16.93,17.07 16.93,17.06 16.94,-17.06 z" /></g><g
         transform="scale(8.33333,8.33333)"
         id="g116"><text
           id="text118"
           style="font-variant:normal;font-weight:normal;font-size:10.28444862px;font-family:'Times New Roman';-inkscape-font-specification:TimesNewRoman;writing-mode:lr-tb;fill:#000000;fill-opacity:1;fill-rule:nonzero;stroke:none"
           transform="matrix(1,0,0,-0.99456965,333.6,621.44)"><tspan
             id="tspan120"
             y="0"
             x="0">2</tspan><tspan
             id="tspan122"
             y="34.990009"
             x="-63.960327">5</tspan><tspan
             id="tspan124"
             y="0"
             x="73.2005">3</tspan><tspan
             id="tspan126"
             y="34.990009"
             x="72.120499">4</tspan><tspan
             id="tspan128"
             y="75.047531"
             x="-1.0798037 71.040817">67</tspan><tspan
             id="tspan130"
             y="110.03754"
             x="72.120499">8</tspan></text>
<text
           id="text132"
           style="font-variant:normal;font-weight:normal;font-size:12.27470016px;font-family:'Times New Roman';-inkscape-font-specification:TimesNewRoman;writing-mode:lr-tb;fill:#000000;fill-opacity:1;fill-rule:nonzero;stroke:none"
           transform="matrix(0.837852,0,0,-1,210.96,636.8)"><tspan
             id="tspan134"
             y="0"
             x="0 3.5804932 9.7391205 13.462837 19.621464 22.056263">fork F</tspan><tspan
             id="tspan136"
             y="33.720001"
             x="76.194901 79.918617 86.077225 89.800941 95.959557 98.394348">fork G</tspan><tspan
             id="tspan138"
             y="-33.720001"
             x="-44.399101 -39.388233 -35.662354 -30.790878 -27.067162 -23.484507 -20.906485">start I</tspan></text>
</g><g
         transform="scale(1.00368,-0.996318)"
         id="g140"><path
           id="path142"
           style="fill:none;stroke:#000000;stroke-width:8.55449963;stroke-linecap:round;stroke-linejoin:round;stroke-miterlimit:10;stroke-dasharray:0, 17.109;stroke-dashoffset:0;stroke-opacity:1"
           d="m 1511.43,-5292.16 0,-274" /></g><g
         transform="scale(1.00368,-0.996318)"
         id="g144"><path
           id="path146"
           style="fill:none;stroke:#000000;stroke-width:8.55449963;stroke-linecap:round;stroke-linejoin:round;stroke-miterlimit:10;stroke-dasharray:0, 17.109;stroke-dashoffset:0;stroke-opacity:1"
           d="m 1331.1,-5566.16 2062.4,0" /></g><g
         transform="scale(1.00368,-0.996318)"
         id="g148"><path
           id="path150"
           style="fill:none;stroke:#000000;stroke-width:8.55449963;stroke-linecap:round;stroke-linejoin:round;stroke-miterlimit:10;stroke-dasharray:none;stroke-opacity:1"
           d="m 1870.11,-5001.08 667.55,0" /></g><g
         transform="scale(1.00368,-0.996318)"
         id="g152"><path
           id="path154"
           style="fill:none;stroke:#000000;stroke-width:8.55449963;stroke-linecap:round;stroke-linejoin:round;stroke-miterlimit:10;stroke-dasharray:none;stroke-opacity:1"
           d="m 2546.62,-5010.12 222.18,-264.97" /></g><g
         transform="scale(8.33333,8.33333)"
         id="g156"><text
           id="text158"
           style="font-variant:normal;font-weight:normal;font-size:12.27470016px;font-family:'Times New Roman';-inkscape-font-specification:TimesNewRoman;writing-mode:lr-tb;fill:#000000;fill-opacity:1;fill-rule:nonzero;stroke:none"
           transform="matrix(0.837852,0,0,-1,337.68,639.8)"><tspan
             id="tspan160"
             y="0"
             x="0 3.7237167 9.8823261 13.606044 19.764652 22.199451">fork H</tspan></text>
</g><g
         transform="scale(1.00368,-0.996318)"
         id="g162"><path
           id="path164"
           style="fill:none;stroke:#000000;stroke-width:8.55449963;stroke-linecap:round;stroke-linejoin:round;stroke-miterlimit:10;stroke-dasharray:none;stroke-opacity:1"
           d="m 2897.33,-4667.86 0,282.04" /></g><g
         transform="scale(8.33333,8.33333)"
         id="g166"><text
           id="text168"
           style="font-variant:normal;font-weight:normal;font-size:12.27470016px;font-family:'Times New Roman';-inkscape-font-specification:TimesNewRoman;writing-mode:lr-tb;fill:#000000;fill-opacity:1;fill-rule:nonzero;stroke:none"
           transform="matrix(0.837852,0,0,-1,335.64,565.16)"><tspan
             id="tspan170"
             y="0"
             x="0 3.7237167 9.8823261 13.46282 19.621429 22.199451">fork H</tspan></text>
</g><path
         id="path172"
         style="fill:#000000;fill-opacity:1;fill-rule:evenodd;stroke:none"
         d="m 1353,5545.67 -17,17 -17,-17 17,-8 17,8" /><g
         transform="scale(1.00368,-0.996318)"
         id="g174"><path
           id="path176"
           style="fill:none;stroke:#000000;stroke-width:8.55449963;stroke-linecap:round;stroke-linejoin:round;stroke-miterlimit:10;stroke-dasharray:none;stroke-opacity:1"
           d="m 1348.04,-5566.16 -16.94,-17.07 -16.94,17.07 16.94,8.03 16.94,-8.03 z" /></g><g
         transform="scale(8.33333,8.33333)"
         id="g178"><text
           id="text180"
           style="font-variant:normal;font-weight:normal;font-size:10.28444862px;font-family:'Times New Roman';-inkscape-font-specification:TimesNewRoman;writing-mode:lr-tb;fill:#000000;fill-opacity:1;fill-rule:nonzero;stroke:none"
           transform="matrix(1,0,0,-0.99456965,157.32,654.2)"><tspan
             id="tspan182"
             y="0"
             x="0">0</tspan></text>
<text
           id="text184"
           style="font-variant:normal;font-weight:normal;font-size:12.27470016px;font-family:'Times New Roman';-inkscape-font-specification:TimesNewRoman;writing-mode:lr-tb;fill:#000000;fill-opacity:1;fill-rule:nonzero;stroke:none"
           transform="matrix(0.837852,0,0,-1,320.16,636.8)"><tspan
             id="tspan186"
             y="0"
             x="0 8.593503">B1</tspan><tspan
             id="tspan188"
             y="-26.639999"
             x="109.566 115.58138 121.74 127.89861">none</tspan></text>
<text
           id="text190"
           style="font-variant:normal;font-weight:normal;font-size:10.28444862px;font-family:'Times New Roman';-inkscape-font-specification:TimesNewRoman;writing-mode:lr-tb;fill:#000000;fill-opacity:1;fill-rule:nonzero;stroke:none"
           transform="matrix(1,0,0,-0.99456965,229.44,624.56)"><tspan
             id="tspan192"
             y="0"
             x="0 4.1983914 9.3584433 15.480065 20.641678 24.72328 28.921658">success</tspan><tspan
             id="tspan194"
             y="1.0858968"
             x="124.80071 128.87909 134.03912 140.16075 145.32236 149.52396 153.60234">success</tspan><tspan
             id="tspan196"
             y="76.13343"
             x="123.7157 128.88075 134.03577 139.20082 144.36243 148.44081">bypass</tspan><tspan
             id="tspan198"
             y="23.648418"
             x="1.0797434 5.1596951 9.3612995 11.403045 13.444791 18.604828 22.68478 127.80727 132.00722 136.08882 138.13057 140.17232 145.33235 149.5323">failurefailure</tspan><tspan
             id="tspan200"
             y="98.816612"
             x="122.63985 126.83981 130.92142 132.96317 135.0049 140.16495 144.3649">failure</tspan><tspan
             id="tspan202"
             y="63.826599"
             x="62.879539 67.079491 71.161095 73.202843 75.244583 80.404625 84.604576">failure</tspan><tspan
             id="tspan204"
             y="34.024765"
             x="63.959541 68.037918 73.197952 79.439575 84.601189 88.682793 92.761169">success</tspan></text>
</g><g
         transform="scale(1.00368,-0.996318)"
         id="g206"><path
           id="path208"
           style="fill:none;stroke:#000000;stroke-width:8.55449963;stroke-linecap:round;stroke-linejoin:round;stroke-miterlimit:10;stroke-dasharray:none;stroke-opacity:1"
           d="m 1519.41,-5284.13 1874.09,0" /></g><g
         transform="scale(1.00368,-0.996318)"
         id="g210"><path
           id="path212"
           style="fill:none;stroke:#000000;stroke-width:8.55449963;stroke-linecap:round;stroke-linejoin:round;stroke-miterlimit:10;stroke-dasharray:none;stroke-opacity:1"
           d="m 2392.19,-4667.86 1001.31,0" /></g><g
         transform="scale(1.00368,-0.996318)"
         id="g214"><path
           id="path216"
           style="fill:none;stroke:#000000;stroke-width:8.55449963;stroke-linecap:round;stroke-linejoin:round;stroke-miterlimit:10;stroke-dasharray:none;stroke-opacity:1"
           d="m 2897.33,-4376.78 488.2,0" /></g><g
         transform="scale(1.00368,-0.996318)"
         id="g218"><path
           id="path220"
           style="fill:none;stroke:#000000;stroke-width:8.55449963;stroke-linecap:round;stroke-linejoin:round;stroke-miterlimit:10;stroke-dasharray:none;stroke-opacity:1"
           d="m 1870.11,-5001.08 0,-283.05" /></g><g
         transform="scale(1.00368,-0.996318)"
         id="g222"><path
           id="path224"
           style="fill:none;stroke:#000000;stroke-width:8.55449963;stroke-linecap:round;stroke-linejoin:round;stroke-miterlimit:10;stroke-dasharray:none;stroke-opacity:1"
           d="m 2897.33,-5001.08 488.2,0" /></g><g
         id="g452"><g
           clip-path="url(#clipPath456)"
           id="g454"><g
             transform="scale(8.33333,8.33333)"
             id="g460" /></g></g><g
         transform="scale(8.33333,8.33333)"
         id="g462" /><g
         id="g498"><g
           clip-path="url(#clipPath502)"
           id="g500"><g
             transform="scale(8.33333,8.33333)"
             id="g506" /></g></g><g
         id="g514"><g
           clip-path="url(#clipPath518)"
           id="g516"><g
             transform="scale(8.33333,8.33333)"
             id="g522" /></g></g></g></g></svg>