<?xml version="1.0" encoding="UTF-8" standalone="no"?>
<svg
   xmlns:dc="http://purl.org/dc/elements/1.1/"
   xmlns:cc="http://creativecommons.org/ns#"
   xmlns:rdf="http://www.w3.org/1999/02/22-rdf-syntax-ns#"
   xmlns:svg="http://www.w3.org/2000/svg"
   xmlns="http://www.w3.org/2000/svg"
   viewBox="0 0 586.20557 345.89444"
   height="345.89444"
   width="586.20557"
   xml:space="preserve"
   version="1.1"
   id="svg2"><metadata
     id="metadata8"><rdf:RDF><cc:Work
         rdf:about=""><dc:format>image/svg+xml</dc:format><dc:type
           rdf:resource="http://purl.org/dc/dcmitype/StillImage" /><dc:title></dc:title></cc:Work></rdf:RDF></metadata><defs
     id="defs6" /><g
     transform="matrix(1.25,0,0,-1.25,-88.723156,523.22278)"
     id="g10"><g
       transform="scale(0.12,0.12)"
       id="g12"><g
         transform="scale(1.00472,-0.995282)"
         id="g82"><path
           id="path84"
           style="fill:none;stroke:#000000;stroke-width:6.99399996;stroke-linecap:round;stroke-linejoin:round;stroke-miterlimit:10;stroke-dasharray:none;stroke-opacity:1"
           d="m 2292.18,-3017.91 48.77,-35.16 34.84,-7.04 27.87,7.04 55.74,35.16" /></g><g
         transform="scale(1.00472,-0.995282)"
         id="g86"><path
           id="path88"
           style="fill:none;stroke:#000000;stroke-width:6.99399996;stroke-linecap:round;stroke-linejoin:round;stroke-miterlimit:10;stroke-dasharray:none;stroke-opacity:1"
           d="m 2292.18,-3017.91 34.84,-132.62 20.9,-28.14 27.87,-7.03 20.9,7.03 20.9,28.14 41.81,132.62" /></g><g
         transform="scale(1.00472,-0.995282)"
         id="g90"><path
           id="path92"
           style="fill:none;stroke:#000000;stroke-width:6.99399996;stroke-linecap:round;stroke-linejoin:round;stroke-miterlimit:10;stroke-dasharray:none;stroke-opacity:1"
           d="m 2165.78,-3395.69 420.02,0 0,209.99 -420.02,0 0,-209.99 z" /></g><g
         transform="scale(1.00472,-0.995282)"
         id="g94"><path
           id="path96"
           style="fill:none;stroke:#000000;stroke-width:6.99399996;stroke-linecap:round;stroke-linejoin:round;stroke-miterlimit:10;stroke-dasharray:none;stroke-opacity:1"
           d="m 1347.64,-2493.43 34.84,-132.63 20.9,-28.13 27.87,-7.03 20.9,7.03 20.9,28.13 41.8,132.63" /></g><g
         transform="scale(1.00472,-0.995282)"
         id="g98"><path
           id="path100"
           style="fill:none;stroke:#000000;stroke-width:6.99399996;stroke-linecap:round;stroke-linejoin:round;stroke-miterlimit:10;stroke-dasharray:none;stroke-opacity:1"
           d="m 1347.64,-2493.43 167.21,0" /></g><g
         transform="scale(1.00472,-0.995282)"
         id="g102"><path
           id="path104"
           style="fill:none;stroke:#000000;stroke-width:6.99399996;stroke-linecap:round;stroke-linejoin:round;stroke-miterlimit:10;stroke-dasharray:none;stroke-opacity:1"
           d="m 1221.24,-2871.22 420.02,0 0,210 -420.02,0 0,-210 z" /></g><g
         transform="scale(1.00472,-0.995282)"
         id="g106"><path
           id="path108"
           style="fill:none;stroke:#000000;stroke-width:6.99399996;stroke-linecap:round;stroke-linejoin:round;stroke-miterlimit:10;stroke-dasharray:none;stroke-opacity:1"
           d="m 2292.18,-2493.43 34.84,-132.63 20.9,-28.13 27.87,-7.03 20.9,7.03 20.9,28.13 41.81,132.63" /></g><g
         transform="scale(1.00472,-0.995282)"
         id="g110"><path
           id="path112"
           style="fill:none;stroke:#000000;stroke-width:6.99399996;stroke-linecap:round;stroke-linejoin:round;stroke-miterlimit:10;stroke-dasharray:none;stroke-opacity:1"
           d="m 2292.18,-2493.43 167.22,0" /></g><g
         transform="scale(1.00472,-0.995282)"
         id="g114"><path
           id="path116"
           style="fill:none;stroke:#000000;stroke-width:6.99399996;stroke-linecap:round;stroke-linejoin:round;stroke-miterlimit:10;stroke-dasharray:none;stroke-opacity:1"
           d="m 2165.78,-2871.22 420.02,0 0,210 -420.02,0 0,-210 z" /></g><g
         transform="scale(1.00472,-0.995282)"
         id="g118"><path
           id="path120"
           style="fill:none;stroke:#000000;stroke-width:6.99399996;stroke-linecap:round;stroke-linejoin:round;stroke-miterlimit:10;stroke-dasharray:none;stroke-opacity:1"
           d="m 3655.75,-2493.43 34.84,-132.63 20.9,-28.13 28.86,-7.03 20.9,7.03 20.9,28.13 41.81,132.63" /></g><g
         transform="scale(1.00472,-0.995282)"
         id="g122"><path
           id="path124"
           style="fill:none;stroke:#000000;stroke-width:6.99399996;stroke-linecap:round;stroke-linejoin:round;stroke-miterlimit:10;stroke-dasharray:none;stroke-opacity:1"
           d="m 3655.75,-2493.43 168.21,0" /></g><g
         transform="scale(1.00472,-0.995282)"
         id="g126"><path
           id="path128"
           style="fill:none;stroke:#000000;stroke-width:6.99399996;stroke-linecap:round;stroke-linejoin:round;stroke-miterlimit:10;stroke-dasharray:none;stroke-opacity:1"
           d="m 3530.34,-2871.22 419.03,0 0,210 -419.03,0 0,-210 z" /></g><g
         transform="scale(1.00472,-0.995282)"
         id="g130"><path
           id="path132"
           style="fill:none;stroke:#000000;stroke-width:6.99399996;stroke-linecap:round;stroke-linejoin:round;stroke-miterlimit:10;stroke-dasharray:none;stroke-opacity:1"
           d="m 906.722,-1716.77 420.018,0 0,209.99 -420.018,0 0,-209.99 z" /></g><g
         transform="scale(1.00472,-0.995282)"
         id="g134"><path
           id="path136"
           style="fill:none;stroke:#000000;stroke-width:6.99399996;stroke-linecap:round;stroke-linejoin:round;stroke-miterlimit:10;stroke-dasharray:none;stroke-opacity:1"
           d="m 1200.34,-1415.35 -6.97,-35.16 -20.9,-28.13 -27.87,-21.1 -27.87,-7.04 -34.83,7.04 -28.87,21.1 -20.9,28.13 -6.97,35.16 6.97,28.14 20.9,35.16 28.87,13.06 34.83,7.04 27.87,-7.04 27.87,-13.06 20.9,-35.16 6.97,-28.14 z" /></g><g
         transform="scale(1.00472,-0.995282)"
         id="g138"><path
           id="path140"
           style="fill:none;stroke:#000000;stroke-width:6.99399996;stroke-linecap:round;stroke-linejoin:round;stroke-miterlimit:10;stroke-dasharray:none;stroke-opacity:1"
           d="m 1535.75,-2345.74 420.02,0 0,209.99 -420.02,0 0,-209.99 z" /></g><g
         transform="scale(1.00472,-0.995282)"
         id="g142"><path
           id="path144"
           style="fill:none;stroke:#000000;stroke-width:6.99399996;stroke-linecap:round;stroke-linejoin:round;stroke-miterlimit:10;stroke-dasharray:none;stroke-opacity:1"
           d="m 1830.36,-2045.32 -6.96,-35.16 -20.9,-28.14 -28.87,-21.1 -27.87,-6.03 -34.83,6.03 -27.87,21.1 -20.9,28.14 -6.97,35.16 6.97,28.13 20.9,35.17 27.87,14.07 34.83,7.03 27.87,-7.03 28.87,-14.07 20.9,-35.17 6.96,-28.13 z" /></g><g
         transform="scale(1.00472,-0.995282)"
         id="g146"><path
           id="path148"
           style="fill:none;stroke:#000000;stroke-width:6.99399996;stroke-linecap:round;stroke-linejoin:round;stroke-miterlimit:10;stroke-dasharray:none;stroke-opacity:1"
           d="m 2480.3,-2345.74 420.02,0 0,209.99 -420.02,0 0,-209.99 z" /></g><g
         transform="scale(1.00472,-0.995282)"
         id="g150"><path
           id="path152"
           style="fill:none;stroke:#000000;stroke-width:6.99399996;stroke-linecap:round;stroke-linejoin:round;stroke-miterlimit:10;stroke-dasharray:none;stroke-opacity:1"
           d="m 2774.91,-2045.32 -6.97,-35.16 -14.93,-28.14 -34.84,-21.1 -27.86,-6.03 -34.84,6.03 -27.87,21.1 -20.9,28.14 -6.97,35.16 6.97,28.13 20.9,35.17 27.87,14.07 34.84,7.03 27.86,-7.03 34.84,-14.07 14.93,-35.17 6.97,-28.13 z" /></g><g
         transform="scale(1.00472,-0.995282)"
         id="g154"><path
           id="path156"
           style="fill:none;stroke:#000000;stroke-width:6.99399996;stroke-linecap:round;stroke-linejoin:round;stroke-miterlimit:10;stroke-dasharray:none;stroke-opacity:1"
           d="m 3844.86,-2345.74 420.02,0 0,209.99 -420.02,0 0,-209.99 z" /></g><g
         transform="scale(1.00472,-0.995282)"
         id="g158"><path
           id="path160"
           style="fill:none;stroke:#000000;stroke-width:6.99399996;stroke-linecap:round;stroke-linejoin:round;stroke-miterlimit:10;stroke-dasharray:none;stroke-opacity:1"
           d="m 4138.47,-2045.32 -6.96,-35.16 -13.94,-28.14 -34.83,-21.1 -27.87,-6.03 -34.84,6.03 -27.87,21.1 -21.89,28.14 -6.97,35.16 6.97,28.13 21.89,35.17 27.87,14.07 34.84,7.03 27.87,-7.03 34.83,-14.07 13.94,-35.17 6.96,-28.13 z" /></g><g
         transform="scale(1.00472,-0.995282)"
         id="g162"><path
           id="path164"
           style="fill:none;stroke:#000000;stroke-width:6.99399996;stroke-linecap:round;stroke-linejoin:round;stroke-miterlimit:10;stroke-dasharray:none;stroke-opacity:1"
           d="m 1116.73,-2451.23 629.03,0" /></g><g
         transform="scale(1.00472,-0.995282)"
         id="g166"><path
           id="path168"
           style="fill:none;stroke:#000000;stroke-width:6.99399996;stroke-linecap:round;stroke-linejoin:round;stroke-miterlimit:10;stroke-dasharray:none;stroke-opacity:1"
           d="m 1116.73,-2451.23 0,734.46" /></g><g
         transform="scale(1.00472,-0.995282)"
         id="g170"><path
           id="path172"
           style="fill:none;stroke:#000000;stroke-width:6.99399996;stroke-linecap:round;stroke-linejoin:round;stroke-miterlimit:10;stroke-dasharray:none;stroke-opacity:1"
           d="m 1745.76,-2451.23 0,105.49" /></g><g
         transform="scale(1.00472,-0.995282)"
         id="g174"><path
           id="path176"
           style="fill:none;stroke:#000000;stroke-width:6.99399996;stroke-linecap:round;stroke-linejoin:round;stroke-miterlimit:10;stroke-dasharray:none;stroke-opacity:1"
           d="m 1431.25,-2493.43 0,42.2" /></g><g
         transform="scale(1.00472,-0.995282)"
         id="g178"><path
           id="path180"
           style="fill:none;stroke:#000000;stroke-width:6.99399996;stroke-linecap:round;stroke-linejoin:round;stroke-miterlimit:10;stroke-dasharray:none;stroke-opacity:1"
           d="m 2061.27,-2451.23 629.04,0" /></g><g
         transform="scale(1.00472,-0.995282)"
         id="g182"><path
           id="path184"
           style="fill:none;stroke:#000000;stroke-width:6.99399996;stroke-linecap:round;stroke-linejoin:round;stroke-miterlimit:10;stroke-dasharray:none;stroke-opacity:1"
           d="m 3424.84,-2451.23 630.03,0" /></g><g
         transform="scale(1.00472,-0.995282)"
         id="g186"><path
           id="path188"
           style="fill:none;stroke:#000000;stroke-width:6.99399996;stroke-linecap:round;stroke-linejoin:round;stroke-miterlimit:10;stroke-dasharray:none;stroke-opacity:1"
           d="m 2375.79,-2493.43 0,42.2" /></g><g
         transform="scale(1.00472,-0.995282)"
         id="g190"><path
           id="path192"
           style="fill:none;stroke:#000000;stroke-width:6.99399996;stroke-linecap:round;stroke-linejoin:round;stroke-miterlimit:10;stroke-dasharray:none;stroke-opacity:1"
           d="m 3740.35,-2493.43 0,42.2" /></g><g
         transform="scale(1.00472,-0.995282)"
         id="g194"><path
           id="path196"
           style="fill:none;stroke:#000000;stroke-width:6.99399996;stroke-linecap:round;stroke-linejoin:round;stroke-miterlimit:10;stroke-dasharray:none;stroke-opacity:1"
           d="m 2690.31,-2451.23 0,105.49" /></g><g
         transform="scale(1.00472,-0.995282)"
         id="g198"><path
           id="path200"
           style="fill:none;stroke:#000000;stroke-width:6.99399996;stroke-linecap:round;stroke-linejoin:round;stroke-miterlimit:10;stroke-dasharray:none;stroke-opacity:1"
           d="m 4054.87,-2451.23 0,105.49" /></g><g
         transform="scale(1.00472,-0.995282)"
         id="g202"><path
           id="path204"
           style="fill:none;stroke:#000000;stroke-width:6.99399996;stroke-linecap:round;stroke-linejoin:round;stroke-miterlimit:10;stroke-dasharray:none;stroke-opacity:1"
           d="m 1116.73,-1821.26 2308.11,0" /></g><g
         transform="scale(1.00472,-0.995282)"
         id="g206"><path
           id="path208"
           style="fill:none;stroke:#000000;stroke-width:6.99399996;stroke-linecap:round;stroke-linejoin:round;stroke-miterlimit:10;stroke-dasharray:none;stroke-opacity:1"
           d="m 3424.84,-2451.23 0,629.97" /></g><g
         transform="scale(1.00472,-0.995282)"
         id="g210"><path
           id="path212"
           style="fill:none;stroke:#000000;stroke-width:6.99399996;stroke-linecap:round;stroke-linejoin:round;stroke-miterlimit:10;stroke-dasharray:none;stroke-opacity:1"
           d="m 2061.27,-2451.23 0,629.97" /></g><g
         transform="scale(1.00472,-0.995282)"
         id="g214"><path
           id="path216"
           style="fill:none;stroke:#000000;stroke-width:6.99399996;stroke-linecap:round;stroke-linejoin:round;stroke-miterlimit:10;stroke-dasharray:none;stroke-opacity:1"
           d="m 1431.25,-2975.71 2309.1,0" /></g><g
         transform="scale(1.00472,-0.995282)"
         id="g218"><path
           id="path220"
           style="fill:none;stroke:#000000;stroke-width:6.99399996;stroke-linecap:round;stroke-linejoin:round;stroke-miterlimit:10;stroke-dasharray:none;stroke-opacity:1"
           d="m 2375.79,-2975.71 0,-84.4" /></g><g
         transform="scale(1.00472,-0.995282)"
         id="g222"><path
           id="path224"
           style="fill:none;stroke:#000000;stroke-width:6.99399996;stroke-linecap:round;stroke-linejoin:round;stroke-miterlimit:10;stroke-dasharray:none;stroke-opacity:1"
           d="m 1431.25,-2975.71 0,104.49" /></g><g
         transform="scale(1.00472,-0.995282)"
         id="g226"><path
           id="path228"
           style="fill:none;stroke:#000000;stroke-width:6.99399996;stroke-linecap:round;stroke-linejoin:round;stroke-miterlimit:10;stroke-dasharray:none;stroke-opacity:1"
           d="m 2375.79,-2975.71 0,104.49" /></g><g
         transform="scale(1.00472,-0.995282)"
         id="g230"><path
           id="path232"
           style="fill:none;stroke:#000000;stroke-width:6.99399996;stroke-linecap:round;stroke-linejoin:round;stroke-miterlimit:10;stroke-dasharray:none;stroke-opacity:1"
           d="m 3740.35,-2975.71 0,104.49" /></g><g
         transform="scale(1.00472,-0.995282)"
         id="g234"><path
           id="path236"
           style="fill:none;stroke:#000000;stroke-width:6.99399996;stroke-linecap:round;stroke-linejoin:round;stroke-miterlimit:10;stroke-dasharray:0, 13.988;stroke-dashoffset:0;stroke-opacity:1"
           d="m 696.713,-2933.51 2413.607,0 0,1678.92 -2413.607,0 0,-1678.92 z" /></g><g
         transform="scale(1.00472,-0.995282)"
         id="g238"><path
           id="path240"
           style="fill:none;stroke:#000000;stroke-width:6.99399996;stroke-linecap:round;stroke-linejoin:round;stroke-miterlimit:10;stroke-dasharray:0, 13.988;stroke-dashoffset:0;stroke-opacity:1"
           d="m 1431.25,-2387.93 1574.57,0 0,524.47 -1574.57,0 0,-524.47 z" /></g><g
         transform="scale(1.00472,-0.995282)"
         id="g242"><path
           id="path244"
           style="fill:none;stroke:#000000;stroke-width:6.99399996;stroke-linecap:round;stroke-linejoin:round;stroke-miterlimit:10;stroke-dasharray:0, 13.988;stroke-dashoffset:0;stroke-opacity:1"
           d="m 3320.33,-2933.51 1049.05,0 0,1216.74 -1049.05,0 0,-1216.74 z" /></g><g
         transform="scale(1.00472,-0.995282)"
         id="g246"><path
           id="path248"
           style="fill:none;stroke:#000000;stroke-width:6.99399996;stroke-linecap:round;stroke-linejoin:round;stroke-miterlimit:10;stroke-dasharray:0, 13.988;stroke-dashoffset:0;stroke-opacity:1"
           d="m 592.206,-3501.19 3882.684,0 0,2309.9 -3882.684,0 0,-2309.9 z" /></g><g
         transform="scale(8.33333,8.33333)"
         id="g250"><text
           id="text252"
           style="font-variant:normal;font-weight:normal;font-size:10.02840042px;font-family:'Times New Roman';-inkscape-font-specification:TimesNewRoman;writing-mode:lr-tb;fill:#000000;fill-opacity:1;fill-rule:nonzero;stroke:none"
           transform="matrix(0.839213,0,0,-1,76.44,407.12)"><tspan
             id="tspan254"
             y="0"
             x="0 3.0027337 7.0080156 12.155693 15.160196 18.1647 21.167433 24.171934 27.174669 31.179951 36.186172 38.188046 43.191208">fault-tree FT</tspan><tspan
             id="tspan256"
             y="65.160004"
             x="12.1542 16.159481 21.164169 29.168463 34.178047 39.182732 44.33041 48.335693 53.340378 56.344872 58.346756">component A</tspan><tspan
             id="tspan258"
             y="182.16"
             x="274.40021 278.40549 283.41019 291.55746 296.56705 301.57175 306.57648 310.58173 315.58646 318.59094 320.59283">component B</tspan><tspan
             id="tspan260"
             y="198"
             x="467.4382 471.44348 476.44818 484.45248 489.46207 494.46677 499.61447 503.61975 508.62445 511.62891 513.6308">component C</tspan><tspan
             id="tspan262"
             y="22.559999"
             x="241.2262 247.23343 254.38132">TOP</tspan><tspan
             id="tspan264"
             y="85.199997"
             x="108.5302 115.67807 244.22711 251.23201 437.26721 444.27209">G1G2G3</tspan><tspan
             id="tspan266"
             y="223.08"
             x="57.339199 64.34584 69.352127">BE1</tspan><tspan
             id="tspan268"
             y="147.84"
             x="150.85539 157.86205 162.86833 286.41321 293.56287 298.56915 479.4494 486.45605 491.46234">BE2BE3BE4</tspan></text>
</g></g></g></svg>