<?xml version="1.0" encoding="UTF-8" standalone="no"?>
<svg
   xmlns:dc="http://purl.org/dc/elements/1.1/"
   xmlns:cc="http://creativecommons.org/ns#"
   xmlns:rdf="http://www.w3.org/1999/02/22-rdf-syntax-ns#"
   xmlns:svg="http://www.w3.org/2000/svg"
   xmlns="http://www.w3.org/2000/svg"
   viewBox="0 0 550.89893 512.92853"
   height="512.92853"
   width="550.89893"
   xml:space="preserve"
   version="1.1"
   id="svg2"><metadata
     id="metadata8"><rdf:RDF><cc:Work
         rdf:about=""><dc:format>image/svg+xml</dc:format><dc:type
           rdf:resource="http://purl.org/dc/dcmitype/StillImage" /><dc:title></dc:title></cc:Work></rdf:RDF></metadata><defs
     id="defs6" /><g
     transform="matrix(1.25,0,0,-1.25,-96.405075,955.18944)"
     id="g10"><g
       transform="scale(0.12,0.12)"
       id="g12"><g
         transform="scale(8.33333,8.33333)"
         id="g14" /><g
         transform="scale(1.00438,-0.995619)"
         id="g28"><path
           id="path30"
           style="fill:none;stroke:#000000;stroke-width:8.56050014;stroke-linecap:round;stroke-linejoin:round;stroke-miterlimit:10;stroke-dasharray:none;stroke-opacity:1"
           d="m 2879.39,-5235.6 0,128.56" /></g><g
         transform="scale(1.00438,-0.995619)"
         id="g32"><path
           id="path34"
           style="fill:none;stroke:#000000;stroke-width:8.56050014;stroke-linecap:round;stroke-linejoin:round;stroke-miterlimit:10;stroke-dasharray:none;stroke-opacity:1"
           d="m 2519.96,-5929.64 59.74,-42.19 42.81,-9.04 33.85,9.04 68.7,42.19" /></g><g
         transform="scale(1.00438,-0.995619)"
         id="g36"><path
           id="path38"
           style="fill:none;stroke:#000000;stroke-width:8.56050014;stroke-linecap:round;stroke-linejoin:round;stroke-miterlimit:10;stroke-dasharray:none;stroke-opacity:1"
           d="m 2519.96,-5929.64 42.81,-162.72 24.89,-34.15 34.85,-8.03 25.89,8.03 24.89,34.15 51.77,162.72" /></g><g
         transform="scale(1.00438,-0.995619)"
         id="g40"><path
           id="path42"
           style="fill:none;stroke:#000000;stroke-width:8.56050014;stroke-linecap:round;stroke-linejoin:round;stroke-miterlimit:10;stroke-dasharray:none;stroke-opacity:1"
           d="m 2365.64,-6391.67 513.75,0 0,257.13 -513.75,0 0,-257.13 z" /></g><g
         transform="scale(1.00438,-0.995619)"
         id="g44"><path
           id="path46"
           style="fill:none;stroke:#000000;stroke-width:8.56050014;stroke-linecap:round;stroke-linejoin:round;stroke-miterlimit:10;stroke-dasharray:none;stroke-opacity:1"
           d="m 1492.46,-5286.83 42.81,-162.71 24.9,-34.15 34.84,-9.04 25.89,9.04 24.89,34.15 51.77,162.71" /></g><g
         transform="scale(1.00438,-0.995619)"
         id="g48"><path
           id="path50"
           style="fill:none;stroke:#000000;stroke-width:8.56050014;stroke-linecap:round;stroke-linejoin:round;stroke-miterlimit:10;stroke-dasharray:none;stroke-opacity:1"
           d="m 1492.46,-5286.83 205.1,0" /></g><g
         transform="scale(1.00438,-0.995619)"
         id="g52"><path
           id="path54"
           style="fill:none;stroke:#000000;stroke-width:8.56050014;stroke-linecap:round;stroke-linejoin:round;stroke-miterlimit:10;stroke-dasharray:none;stroke-opacity:1"
           d="m 1338.14,-5748.85 513.75,0 0,256.12 -513.75,0 0,-256.12 z" /></g><g
         transform="scale(1.00438,-0.995619)"
         id="g56"><path
           id="path58"
           style="fill:none;stroke:#000000;stroke-width:8.56050014;stroke-linecap:round;stroke-linejoin:round;stroke-miterlimit:10;stroke-dasharray:none;stroke-opacity:1"
           d="m 3547.46,-5286.83 42.81,-162.71 24.89,-34.15 34.85,-9.04 25.89,9.04 24.89,34.15 51.77,162.71" /></g><g
         transform="scale(1.00438,-0.995619)"
         id="g60"><path
           id="path62"
           style="fill:none;stroke:#000000;stroke-width:8.56050014;stroke-linecap:round;stroke-linejoin:round;stroke-miterlimit:10;stroke-dasharray:none;stroke-opacity:1"
           d="m 3547.46,-5286.83 205.1,0" /></g><g
         transform="scale(1.00438,-0.995619)"
         id="g64"><path
           id="path66"
           style="fill:none;stroke:#000000;stroke-width:8.56050014;stroke-linecap:round;stroke-linejoin:round;stroke-miterlimit:10;stroke-dasharray:none;stroke-opacity:1"
           d="m 3393.14,-5748.85 513.75,0 0,256.12 -513.75,0 0,-256.12 z" /></g><g
         transform="scale(1.00438,-0.995619)"
         id="g68"><path
           id="path70"
           style="fill:none;stroke:#000000;stroke-width:8.56050014;stroke-linecap:round;stroke-linejoin:round;stroke-miterlimit:10;stroke-dasharray:none;stroke-opacity:1"
           d="m 952.826,-4464.22 513.754,0 0,256.12 -513.754,0 0,-256.12 z" /></g><g
         transform="scale(1.00438,-0.995619)"
         id="g72"><path
           id="path74"
           style="fill:none;stroke:#000000;stroke-width:8.56050014;stroke-linecap:round;stroke-linejoin:round;stroke-miterlimit:10;stroke-dasharray:none;stroke-opacity:1"
           d="m 1312.25,-4096.61 -8.96,-42.19 -24.89,-35.15 -34.85,-25.11 -33.85,-9.04 -42.81,9.04 -34.85,25.11 -24.89,35.15 -8.96,42.19 8.96,34.15 24.89,43.19 34.85,17.07 42.81,8.04 33.85,-8.04 34.85,-17.07 24.89,-43.19 8.96,-34.15 z" /></g><g
         transform="scale(1.00438,-0.995619)"
         id="g76"><path
           id="path78"
           style="fill:none;stroke:#000000;stroke-width:8.56050014;stroke-linecap:round;stroke-linejoin:round;stroke-miterlimit:10;stroke-dasharray:none;stroke-opacity:1"
           d="m 3393.14,-5107.04 513.75,0 0,257.13 -513.75,0 0,-257.13 z" /></g><g
         transform="scale(1.00438,-0.995619)"
         id="g80"><path
           id="path82"
           style="fill:none;stroke:#000000;stroke-width:8.56050014;stroke-linecap:round;stroke-linejoin:round;stroke-miterlimit:10;stroke-dasharray:none;stroke-opacity:1"
           d="m 3752.56,-4738.43 -8.96,-43.18 -16.93,-34.15 -42.81,-26.12 -33.85,-8.03 -42.81,8.03 -34.85,26.12 -24.89,34.15 -8.96,43.18 8.96,34.15 24.89,42.19 34.85,17.07 42.81,9.04 33.85,-9.04 42.81,-17.07 16.93,-42.19 8.96,-34.15 z" /></g><g
         transform="scale(1.00438,-0.995619)"
         id="g84"><path
           id="path86"
           style="fill:none;stroke:#000000;stroke-width:8.56050014;stroke-linecap:round;stroke-linejoin:round;stroke-miterlimit:10;stroke-dasharray:none;stroke-opacity:1"
           d="m 1595.01,-3436.72 513.75,0 0,256.12 -513.75,0 0,-256.12 z" /></g><g
         transform="scale(1.00438,-0.995619)"
         id="g88"><path
           id="path90"
           style="fill:none;stroke:#000000;stroke-width:8.56050014;stroke-linecap:round;stroke-linejoin:round;stroke-miterlimit:10;stroke-dasharray:none;stroke-opacity:1"
           d="m 1954.44,-3069.11 -8.96,-42.19 -24.89,-34.15 -34.85,-26.11 -33.85,-9.04 -42.81,9.04 -34.85,26.11 -24.89,34.15 -8.96,42.19 8.96,34.15 24.89,43.19 34.85,17.07 42.81,9.04 33.85,-9.04 34.85,-17.07 24.89,-43.19 8.96,-34.15 z" /></g><g
         transform="scale(1.00438,-0.995619)"
         id="g92"><path
           id="path94"
           style="fill:none;stroke:#000000;stroke-width:8.56050014;stroke-linecap:round;stroke-linejoin:round;stroke-miterlimit:10;stroke-dasharray:none;stroke-opacity:1"
           d="m 3650.01,-5235.6 0,128.56" /></g><g
         transform="scale(1.00438,-0.995619)"
         id="g96"><path
           id="path98"
           style="fill:none;stroke:#000000;stroke-width:8.56050014;stroke-linecap:round;stroke-linejoin:round;stroke-miterlimit:10;stroke-dasharray:none;stroke-opacity:1"
           d="m 1595.01,-5286.83 0,51.23" /></g><g
         transform="scale(1.00438,-0.995619)"
         id="g100"><path
           id="path102"
           style="fill:none;stroke:#000000;stroke-width:8.56050014;stroke-linecap:round;stroke-linejoin:round;stroke-miterlimit:10;stroke-dasharray:none;stroke-opacity:1"
           d="m 3650.01,-5286.83 0,51.23" /></g><g
         transform="scale(1.00438,-0.995619)"
         id="g104"><path
           id="path106"
           style="fill:none;stroke:#000000;stroke-width:8.56050014;stroke-linecap:round;stroke-linejoin:round;stroke-miterlimit:10;stroke-dasharray:none;stroke-opacity:1"
           d="m 1851.89,-4592.79 0,1156.07" /></g><g
         transform="scale(1.00438,-0.995619)"
         id="g108"><path
           id="path110"
           style="fill:none;stroke:#000000;stroke-width:8.56050014;stroke-linecap:round;stroke-linejoin:round;stroke-miterlimit:10;stroke-dasharray:none;stroke-opacity:1"
           d="m 2622.51,-5877.41 0,-103.46" /></g><g
         transform="scale(1.00438,-0.995619)"
         id="g112"><path
           id="path114"
           style="fill:none;stroke:#000000;stroke-width:8.56050014;stroke-linecap:round;stroke-linejoin:round;stroke-miterlimit:10;stroke-dasharray:none;stroke-opacity:1"
           d="m 1595.01,-5877.41 0,128.56" /></g><g
         transform="scale(1.00438,-0.995619)"
         id="g116"><path
           id="path118"
           style="fill:none;stroke:#000000;stroke-width:8.56050014;stroke-linecap:round;stroke-linejoin:round;stroke-miterlimit:10;stroke-dasharray:none;stroke-opacity:1"
           d="m 3650.01,-5877.41 0,128.56" /></g><g
         transform="scale(8.33333,8.33333)"
         id="g120"><text
           id="text122"
           style="font-variant:normal;font-weight:normal;font-size:12.27789974px;font-family:'Times New Roman';-inkscape-font-specification:TimesNewRoman;writing-mode:lr-tb;fill:#000000;fill-opacity:1;fill-rule:nonzero;stroke:none"
           transform="matrix(0.838666,0,0,-1,306.84,737.96)"><tspan
             id="tspan124"
             y="0"
             x="0 7.2992568 16.025322">TOP</tspan><tspan
             id="tspan126"
             y="76.68"
             x="-143.94299 -135.36002 151.383 159.96599">G1G2</tspan><tspan
             id="tspan128"
             y="230.16"
             x="-199.317 -192.01775">E1</tspan><tspan
             id="tspan130"
             y="153.48"
             x="147.662 156.24715 162.40173">BE2</tspan><tspan
             id="tspan132"
             y="352.92001"
             x="-107.028 -99.728745">E3</tspan></text>
</g><g
         transform="scale(1.00438,-0.995619)"
         id="g134"><path
           id="path136"
           style="fill:none;stroke:#000000;stroke-width:8.56050014;stroke-linecap:round;stroke-linejoin:round;stroke-miterlimit:10;stroke-dasharray:none;stroke-opacity:1"
           d="m 1492.46,-4645.02 59.74,-42.18 42.81,-9.04 33.85,9.04 68.7,42.18" /></g><g
         transform="scale(1.00438,-0.995619)"
         id="g138"><path
           id="path140"
           style="fill:none;stroke:#000000;stroke-width:8.56050014;stroke-linecap:round;stroke-linejoin:round;stroke-miterlimit:10;stroke-dasharray:none;stroke-opacity:1"
           d="m 1492.46,-4645.02 42.81,-162.71 24.9,-34.15 34.84,-8.03 25.89,8.03 24.89,34.15 51.77,162.71" /></g><g
         transform="scale(1.00438,-0.995619)"
         id="g142"><path
           id="path144"
           style="fill:none;stroke:#000000;stroke-width:8.56050014;stroke-linecap:round;stroke-linejoin:round;stroke-miterlimit:10;stroke-dasharray:none;stroke-opacity:1"
           d="m 1338.14,-5107.04 513.75,0 0,257.13 -513.75,0 0,-257.13 z" /></g><g
         transform="scale(1.00438,-0.995619)"
         id="g146"><path
           id="path148"
           style="fill:none;stroke:#000000;stroke-width:8.56050014;stroke-linecap:round;stroke-linejoin:round;stroke-miterlimit:10;stroke-dasharray:none;stroke-opacity:1"
           d="m 1595.01,-4592.79 0,-103.45" /></g><g
         transform="scale(8.33333,8.33333)"
         id="g150"><text
           id="text152"
           style="font-variant:normal;font-weight:normal;font-size:12.27789974px;font-family:'Times New Roman';-inkscape-font-specification:TimesNewRoman;writing-mode:lr-tb;fill:#000000;fill-opacity:1;fill-rule:nonzero;stroke:none"
           transform="matrix(0.838666,0,0,-1,183,584.48)"><tspan
             id="tspan154"
             y="0"
             x="0 8.5829811">G3</tspan></text>
</g><g
         transform="scale(1.00438,-0.995619)"
         id="g156"><path
           id="path158"
           style="fill:none;stroke:#000000;stroke-width:8.56050014;stroke-linecap:round;stroke-linejoin:round;stroke-miterlimit:10;stroke-dasharray:none;stroke-opacity:1"
           d="m 2750.95,-4849.91 128.44,-257.13 128.43,257.13 -256.87,0 z" /></g><path
         id="path160"
         style="fill:#ffffff;fill-opacity:1;fill-rule:evenodd;stroke:none"
         d="m 2926,5084.67 -8,26 -26,17 -26,-17 -17,-26 17,-26 26,-8 26,8 8,26" /><g
         transform="scale(1.00438,-0.995619)"
         id="g162"><path
           id="path164"
           style="fill:none;stroke:#000000;stroke-width:8.56050014;stroke-linecap:round;stroke-linejoin:round;stroke-miterlimit:10;stroke-dasharray:none;stroke-opacity:1"
           d="m 2913.24,-5107.04 -7.97,-26.11 -25.88,-17.08 -25.89,17.08 -16.93,26.11 16.93,26.11 25.89,8.04 25.88,-8.04 7.97,-26.11 z" /></g><g
         transform="scale(1.00438,-0.995619)"
         id="g166"><path
           id="path168"
           style="fill:none;stroke:#000000;stroke-width:8.56050014;stroke-linecap:round;stroke-linejoin:round;stroke-miterlimit:10;stroke-dasharray:none;stroke-opacity:1"
           d="m 824.389,-5107.04 -180.211,128.56 0,205.91 359.422,0 0,-205.91 -179.211,-128.56 z" /></g><g
         transform="scale(8.33333,8.33333)"
         id="g170"><text
           id="text172"
           style="font-variant:normal;font-weight:normal;font-size:12.27789974px;font-family:'Times New Roman';-inkscape-font-specification:TimesNewRoman;writing-mode:lr-tb;fill:#000000;fill-opacity:1;fill-rule:nonzero;stroke:none"
           transform="matrix(0.838666,0,0,-1,93.24,581.48)"><tspan
             id="tspan174"
             y="0"
             x="0 8.5829811">H1</tspan></text>
</g><g
         transform="scale(1.00438,-0.995619)"
         id="g176"><path
           id="path178"
           style="fill:none;stroke:#000000;stroke-width:8.56050014;stroke-linecap:round;stroke-linejoin:round;stroke-miterlimit:10;stroke-dasharray:none;stroke-opacity:1"
           d="m 2879.39,-5235.6 1412.81,0" /></g><g
         transform="scale(1.00438,-0.995619)"
         id="g180"><path
           id="path182"
           style="fill:none;stroke:#000000;stroke-width:8.56050014;stroke-linecap:round;stroke-linejoin:round;stroke-miterlimit:10;stroke-dasharray:none;stroke-opacity:1"
           d="m 824.389,-5235.6 1412.811,0" /></g><g
         transform="scale(1.00438,-0.995619)"
         id="g184"><path
           id="path186"
           style="fill:none;stroke:#000000;stroke-width:8.56050014;stroke-linecap:round;stroke-linejoin:round;stroke-miterlimit:10;stroke-dasharray:none;stroke-opacity:1"
           d="m 1595.01,-5877.41 2055,0" /></g><g
         transform="scale(1.00438,-0.995619)"
         id="g188"><path
           id="path190"
           style="fill:none;stroke:#000000;stroke-width:8.56050014;stroke-linecap:round;stroke-linejoin:round;stroke-miterlimit:10;stroke-dasharray:none;stroke-opacity:1"
           d="m 824.389,-5235.6 0,128.56" /></g><g
         transform="scale(1.00438,-0.995619)"
         id="g192"><path
           id="path194"
           style="fill:none;stroke:#000000;stroke-width:8.56050014;stroke-linecap:round;stroke-linejoin:round;stroke-miterlimit:10;stroke-dasharray:none;stroke-opacity:1"
           d="m 1595.01,-5235.6 0,128.56" /></g><g
         transform="scale(1.00438,-0.995619)"
         id="g196"><path
           id="path198"
           style="fill:none;stroke:#000000;stroke-width:8.56050014;stroke-linecap:round;stroke-linejoin:round;stroke-miterlimit:10;stroke-dasharray:none;stroke-opacity:1"
           d="m 2134.65,-3616.51 59.74,-43.19 42.81,-9.04 33.85,9.04 68.7,43.19" /></g><g
         transform="scale(1.00438,-0.995619)"
         id="g200"><path
           id="path202"
           style="fill:none;stroke:#000000;stroke-width:8.56050014;stroke-linecap:round;stroke-linejoin:round;stroke-miterlimit:10;stroke-dasharray:none;stroke-opacity:1"
           d="m 2134.65,-3616.51 42.81,-162.71 24.89,-34.15 34.85,-9.04 25.89,9.04 24.89,34.15 51.77,162.71" /></g><g
         transform="scale(1.00438,-0.995619)"
         id="g204"><path
           id="path206"
           style="fill:none;stroke:#000000;stroke-width:8.56050014;stroke-linecap:round;stroke-linejoin:round;stroke-miterlimit:10;stroke-dasharray:none;stroke-opacity:1"
           d="m 1980.33,-4079.54 513.74,0 0,257.13 -513.74,0 0,-257.13 z" /></g><g
         transform="scale(1.00438,-0.995619)"
         id="g208"><path
           id="path210"
           style="fill:none;stroke:#000000;stroke-width:8.56050014;stroke-linecap:round;stroke-linejoin:round;stroke-miterlimit:10;stroke-dasharray:none;stroke-opacity:1"
           d="m 2237.2,-3565.29 0,-103.45" /></g><g
         transform="scale(8.33333,8.33333)"
         id="g212"><text
           id="text214"
           style="font-variant:normal;font-weight:normal;font-size:12.27789974px;font-family:'Times New Roman';-inkscape-font-specification:TimesNewRoman;writing-mode:lr-tb;fill:#000000;fill-opacity:1;fill-rule:nonzero;stroke:none"
           transform="matrix(0.838666,0,0,-1,260.4,461.72)"><tspan
             id="tspan216"
             y="0"
             x="0 8.5829811">G4</tspan></text>
</g><g
         transform="scale(1.00438,-0.995619)"
         id="g218"><path
           id="path220"
           style="fill:none;stroke:#000000;stroke-width:8.56050014;stroke-linecap:round;stroke-linejoin:round;stroke-miterlimit:10;stroke-dasharray:none;stroke-opacity:1"
           d="m 1209.7,-4592.79 642.19,0" /></g><g
         transform="scale(1.00438,-0.995619)"
         id="g222"><path
           id="path224"
           style="fill:none;stroke:#000000;stroke-width:8.56050014;stroke-linecap:round;stroke-linejoin:round;stroke-miterlimit:10;stroke-dasharray:none;stroke-opacity:1"
           d="m 1209.7,-4592.79 0,128.57" /></g><g
         transform="scale(1.00438,-0.995619)"
         id="g226"><path
           id="path228"
           style="fill:none;stroke:#000000;stroke-width:8.56050014;stroke-linecap:round;stroke-linejoin:round;stroke-miterlimit:10;stroke-dasharray:none;stroke-opacity:1"
           d="m 1851.89,-3565.29 770.62,0" /></g><g
         transform="scale(1.00438,-0.995619)"
         id="g230"><path
           id="path232"
           style="fill:none;stroke:#000000;stroke-width:8.56050014;stroke-linecap:round;stroke-linejoin:round;stroke-miterlimit:10;stroke-dasharray:none;stroke-opacity:1"
           d="m 2365.64,-3436.72 513.75,0 0,256.12 -513.75,0 0,-256.12 z" /></g><g
         transform="scale(1.00438,-0.995619)"
         id="g234"><path
           id="path236"
           style="fill:none;stroke:#000000;stroke-width:8.56050014;stroke-linecap:round;stroke-linejoin:round;stroke-miterlimit:10;stroke-dasharray:none;stroke-opacity:1"
           d="m 2725.06,-3069.11 -8.96,-42.19 -24.89,-34.15 -34.85,-26.11 -33.85,-9.04 -42.81,9.04 -34.85,26.11 -24.89,34.15 -8.96,42.19 8.96,34.15 24.89,43.19 34.85,17.07 42.81,9.04 33.85,-9.04 34.85,-17.07 24.89,-43.19 8.96,-34.15 z" /></g><g
         transform="scale(8.33333,8.33333)"
         id="g238"><text
           id="text240"
           style="font-variant:normal;font-weight:normal;font-size:12.27789974px;font-family:'Times New Roman';-inkscape-font-specification:TimesNewRoman;writing-mode:lr-tb;fill:#000000;fill-opacity:1;fill-rule:nonzero;stroke:none"
           transform="matrix(0.838666,0,0,-1,309.96,385.04)"><tspan
             id="tspan242"
             y="0"
             x="0 7.2992568">E4</tspan></text>
</g><g
         transform="scale(1.00438,-0.995619)"
         id="g244"><path
           id="path246"
           style="fill:none;stroke:#000000;stroke-width:8.56050014;stroke-linecap:round;stroke-linejoin:round;stroke-miterlimit:10;stroke-dasharray:none;stroke-opacity:1"
           d="m 2622.51,-3565.29 0,128.57" /></g><g
         transform="scale(1.00438,-0.995619)"
         id="g248"><path
           id="path250"
           style="fill:none;stroke:#000000;stroke-width:8.56050014;stroke-linecap:round;stroke-linejoin:round;stroke-miterlimit:10;stroke-dasharray:none;stroke-opacity:1"
           d="m 2237.2,-5235.6 0,1156.06" /></g><g
         transform="scale(1.00438,-0.995619)"
         id="g252"><path
           id="path254"
           style="fill:none;stroke:#000000;stroke-width:8.56050014;stroke-linecap:round;stroke-linejoin:round;stroke-miterlimit:10;stroke-dasharray:none;stroke-opacity:1"
           d="m 2237.2,-4208.1 2055,0" /></g><g
         transform="scale(1.00438,-0.995619)"
         id="g256"><path
           id="path258"
           style="fill:none;stroke:#000000;stroke-width:8.56050014;stroke-linecap:round;stroke-linejoin:round;stroke-miterlimit:10;stroke-dasharray:none;stroke-opacity:1"
           d="m 4292.2,-5235.6 0,1027.5" /></g><g
         transform="scale(1.00438,-0.995619)"
         id="g260"><path
           id="path262"
           style="fill:none;stroke:#000000;stroke-width:8.56050014;stroke-linecap:round;stroke-linejoin:round;stroke-miterlimit:10;stroke-dasharray:none;stroke-opacity:1"
           d="m 2879.39,-4849.91 -180.21,128.56 0,204.9 359.42,0 0,-204.9 -179.21,-128.56 z" /></g><g
         transform="matrix(8.33333,0,0,8.33333,0,-364.21257)"
         id="g264"><text
           y="-543.94116"
           x="372.26993"
           id="text266"
           style="font-variant:normal;font-weight:normal;font-size:11.24394226px;font-family:'Times New Roman';-inkscape-font-specification:TimesNewRoman;writing-mode:lr-tb;fill:#000000;fill-opacity:1;fill-rule:nonzero;stroke:none"
           transform="scale(0.91578707,-1.0919569)"><tspan
             id="tspan268"
             y="-543.94116"
             x="372.26993 380.13013">H1</tspan></text>
</g></g></g></svg>