<?xml version="1.0" encoding="UTF-8" standalone="no"?>
<svg
   xmlns:dc="http://purl.org/dc/elements/1.1/"
   xmlns:cc="http://creativecommons.org/ns#"
   xmlns:rdf="http://www.w3.org/1999/02/22-rdf-syntax-ns#"
   xmlns:svg="http://www.w3.org/2000/svg"
   xmlns="http://www.w3.org/2000/svg"
   viewBox="0 0 451.54929 449.31927"
   height="449.31927"
   width="451.54929"
   xml:space="preserve"
   version="1.1"
   id="svg2"><metadata
     id="metadata8"><rdf:RDF><cc:Work
         rdf:about=""><dc:format>image/svg+xml</dc:format><dc:type
           rdf:resource="http://purl.org/dc/dcmitype/StillImage" /><dc:title></dc:title></cc:Work></rdf:RDF></metadata><defs
     id="defs6"><clipPath
       id="clipPath88"
       clipPathUnits="userSpaceOnUse"><path
         id="path90"
         d="m 988,6368.67 2984,0 0,-448 -2984,0 0,448 z" /></clipPath><clipPath
       id="clipPath8427"
       clipPathUnits="userSpaceOnUse"><rect
         transform="scale(1,-1)"
         y="-6392.3018"
         x="973.71112"
         height="2995.4619"
         width="3010.3286"
         id="rect8429"
         style="opacity:1;fill:none;fill-opacity:1;fill-rule:nonzero;stroke:none;stroke-width:1.28499997;stroke-linecap:butt;stroke-linejoin:miter;stroke-miterlimit:10;stroke-dasharray:none;stroke-opacity:0" /></clipPath></defs><g
     style="display:inline"
     transform="matrix(1.25,0,0,-1.25,-146.05667,958.84526)"
     id="g10"><g
       clip-path="url(#clipPath8427)"
       transform="scale(0.12,0.12)"
       id="g12"><g
         transform="scale(8.33333,8.33333)"
         id="g14"><text
           id="text16"
           style="font-variant:normal;font-weight:normal;font-size:12px;font-family:'Times New Roman';-inkscape-font-specification:TimesNewRoman;writing-mode:lr-tb;fill:#000000;fill-opacity:1;fill-rule:nonzero;stroke:none"
           transform="matrix(0.99941,0,0,-1,73.68,795.2)"><tspan
             id="tspan18"
             y="0"
             x="0 8.6372213 14.646624 19.931568 25.935112 30.017427 36.619499 43.221569 51.984722 255.14461 263.78183 269.79126 275.07617 281.07974 285.16202 291.7641 298.36615 307.00925 310.13107 320.69537 326.69894 332.82254 338.10748 341.4715 344.47324 351.7995 357.92313 363.20804 369.21161 374.49655 380.62015 386.38358 391.66849 394.9104 401.397 407.40054 411.48285 420.8504 426.13535 429.49939 432.50116 436.46338 439.46515 445.46866 451.4722">Open-PSA Open-PSA Model Exchange Format - 13 </tspan><tspan
             id="tspan20"
             y="13.8"
             x="1.1950001 7.1985397 13.20208 19.20562 25.209158 31.212698 37.21624 43.219776 49.223316 55.226864 61.230412 67.233955 73.237503 79.241051 85.244598 91.248146 97.251694 103.25524 109.25879 115.26234 121.26588 127.26943 133.27298 139.27652 145.28008 151.28362 157.28717 163.29071 169.29425 175.29781 181.30135 187.3049 193.30844 199.312 205.31554 211.31909 217.32263 223.32619 229.32973 235.33328 241.33682 247.34036 253.34392 259.34747 265.35101 271.35455 277.35809 283.36166 289.3652 295.36874 301.37228 307.37601 313.37955 319.38309 325.38663 331.3902 337.39374 343.39728 349.40082 355.40439 361.40793 367.41147 373.41501 379.41858 385.42212 391.42566 397.4292 403.43274 409.43631 415.43985 421.44342 427.44693 433.45047 439.45398 445.45749">___________________________________________________________________________</tspan><tspan
             id="tspan22"
             y="27.6"
             x="433.45001 439.45352 445.45703 451.46643">___ </tspan></text>
<text
           id="text24"
           style="font-variant:normal;font-weight:normal;font-size:9.96000004px;font-family:'Times New Roman';-inkscape-font-specification:TimesNewRoman;writing-mode:lr-tb;fill:#000000;fill-opacity:1;fill-rule:nonzero;stroke:none"
           transform="matrix(0.999386,0,0,-1,419.04,38.9602)"><tspan
             id="tspan26"
             y="0"
             x="0 7.2027578 10.564759 15.009014 18.371016 21.254457 23.655928 28.699013 32.662434 37.705521 40.227062 45.270149 50.193161 52.714703 57.75779 60.279331 65.202339 70.125351 73.008797 78.05188 82.974892 85.858337 90.781349 95.824432 100.86752 105.91061">Draft n°2.0d – 12/05/2008 </tspan></text>
<text
           id="text28"
           style="font-variant:normal;font-weight:normal;font-size:12.29160023px;font-family:'Times New Roman';-inkscape-font-specification:TimesNewRoman;writing-mode:lr-tb;fill:#000000;fill-opacity:1;fill-rule:nonzero;stroke:none"
           transform="matrix(0.984243,0,0,-1,258.96,742.04)"><tspan
             id="tspan30"
             y="0"
             x="0 9.5077753 15.727639 20.968372 27.308275 31.455486 35.72263 38.892567 46.207939 52.547844 58.765827 65.107613">Report Layer</tspan></text>
<text
           id="text32"
           style="font-variant:normal;font-weight:normal;font-size:12.29160023px;font-family:'Times New Roman';-inkscape-font-specification:TimesNewRoman;writing-mode:lr-tb;fill:#000000;fill-opacity:1;fill-rule:nonzero;stroke:none"
           transform="matrix(0.838221,0,0,-1,164.04,727.76)"><tspan
             id="tspan34"
             y="0"
             x="0 3.581074 7.3031526 12.315641 18.473412 23.342741 28.351391 30.785128 36.941029 40.663105 43.096844 51.688534 57.844437 64.000336 70.158112 73.882339 76.316078 80.038155 84.907486 93.638199 97.217094 100.94131 104.66553 108.38975 114.54565 120.70155 125.56704 128.14391 133.01321 139.16913 145.32503 149.04718 153.91649 158.92896 162.51001 167.52249 174.96683 177.4026 183.56036 187.28458 190.86563 197.02153 203.17743 206.89764 210.6198 213.05351 216.77556 221.78804 226.65353 232.80943 236.53365 240.22301 243.80005 246.37692 249.95592">traces of model rewritings and calculations, results...</tspan></text>
<text
           id="text36"
           style="font-variant:normal;font-weight:normal;font-size:12.29160023px;font-family:'Times New Roman';-inkscape-font-specification:TimesNewRoman;writing-mode:lr-tb;fill:#000000;fill-opacity:1;fill-rule:nonzero;stroke:none"
           transform="matrix(0.984243,0,0,-1,247.68,671.36)"><tspan
             id="tspan38"
             y="0"
             x="0 7.3153729 13.655277 19.875141 26.213161 29.383017 32.43103 39.868324 45.11282 51.332684 56.577179 59.747116 68.159782 73.40239 79.742294 85.962158">Event Tree Layer</tspan></text>
<text
           id="text40"
           style="font-variant:normal;font-weight:normal;font-size:12.29160023px;font-family:'Times New Roman';-inkscape-font-specification:TimesNewRoman;writing-mode:lr-tb;fill:#000000;fill-opacity:1;fill-rule:nonzero;stroke:none"
           transform="matrix(0.838221,0,0,-1,171.24,658.04)"><tspan
             id="tspan42"
             y="0"
             x="0 4.8693285 11.025229 17.183001 23.338902 27.063135 29.496872 33.221107 36.943184 41.812511 46.825001 51.690491 54.267384 56.701118 60.425354 66.581253 70.162331 73.886559 77.610794 83.76857 86.204361 92.36026 96.082321 101.09097 103.52468 105.95839 112.11614 118.27205 124.42795 129.29344 134.30591 140.46181 146.61771 151.48701 157.64293 163.80067 168.81314 173.67863 176.11235 178.68922 184.84697 191.00287 197.15878 200.73767 204.45789 208.1821 213.19456 216.77562 222.93338 226.65358 230.37575 232.77901 235.21271">event trees, initiators, consequences, end-states... </tspan></text>
<text
           id="text44"
           style="font-variant:normal;font-weight:normal;font-size:12.29160023px;font-family:'Times New Roman';-inkscape-font-specification:TimesNewRoman;writing-mode:lr-tb;fill:#000000;fill-opacity:1;fill-rule:nonzero;stroke:none"
           transform="matrix(0.984243,0,0,-1,241.44,611)"><tspan
             id="tspan46"
             y="0"
             x="0 12.559737 17.804234 22.071377 28.28936 31.459213 39.871876 46.211781 51.454391 54.504475 59.870892 66.088875 69.260872 72.430809 79.746185 86.08609 92.30407 98.645859">Meta-Logical Layer</tspan></text>
<text
           id="text48"
           style="font-variant:normal;font-weight:normal;font-size:12.29160023px;font-family:'Times New Roman';-inkscape-font-specification:TimesNewRoman;writing-mode:lr-tb;fill:#000000;fill-opacity:1;fill-rule:nonzero;stroke:none"
           transform="matrix(0.838221,0,0,-1,162.96,597.68)"><tspan
             id="tspan50"
             y="0"
             x="0 4.8693285 11.025229 20.905363 29.640217 35.796116 41.952019 44.385754 50.543526 55.412853 61.568756 66.577408 71.446732 73.88047 80.036369 83.758446 89.914352 96.06424 102.22615 107.2348 109.66851 112.10223 119.54657 124.41588 128.14009 133.00941 136.73363 141.74609 145.32509 149.0493 154.06178 157.64067 166.37552 171.241 173.67471 176.25159 179.83049 184.84296 191.00072 197.15662 203.31252 208.18182 211.90388 218.05978 220.4935 224.21556 230.37146 234.09567 240.25342 243.97363 246.40735 250.101">common cause groups, delete terms, recovery rules...</tspan></text>
<text
           id="text52"
           style="font-variant:normal;font-weight:normal;font-size:12.29160023px;font-family:'Times New Roman';-inkscape-font-specification:TimesNewRoman;writing-mode:lr-tb;fill:#000000;fill-opacity:1;fill-rule:nonzero;stroke:none"
           transform="matrix(0.984243,0,0,-1,249.72,548.48)"><tspan
             id="tspan54"
             y="0"
             x="0 7.317225 12.559838 18.89786 22.069862 26.215084 29.385021 36.700394 40.847603 47.189392 53.531178 56.701115 64.016487 70.234467 76.574371 81.818871">Fault Tree Layer</tspan></text>
<text
           id="text56"
           style="font-variant:normal;font-weight:normal;font-size:12.29160023px;font-family:'Times New Roman';-inkscape-font-specification:TimesNewRoman;writing-mode:lr-tb;fill:#000000;fill-opacity:1;fill-rule:nonzero;stroke:none"
           transform="matrix(0.838221,0,0,-1,209.4,535.16)"><tspan
             id="tspan58"
             y="0"
             x="0 6.155901 11.168389 14.892624 21.050394 24.627441 28.349613 30.777338 36.939251 41.95174 46.81723 50.541447 55.553917 57.987629 64.145386 70.301285 75.170593 81.326492 85.050713 89.916199 92.493073 94.926788 101.08269 107.23859 113.39449 118.25998 123.27245 125.70616 131.86391 138.01982 142.88913 149.04503 152.76924 157.77789 160.21161 162.64531">gates, basic events, house events...</tspan></text>
<text
           id="text60"
           style="font-variant:normal;font-weight:normal;font-size:12.29160023px;font-family:'Times New Roman';-inkscape-font-specification:TimesNewRoman;writing-mode:lr-tb;fill:#000000;fill-opacity:1;fill-rule:nonzero;stroke:none"
           transform="matrix(0.984243,0,0,-1,250.68,487.04)"><tspan
             id="tspan62"
             y="0"
             x="0 7.4353118 10.605165 16.823147 22.067642 28.405664 34.623646 39.864277 43.03413 46.206131 51.450626 54.620564 63.033226 68.275841 74.49382 80.835609">Stochastic Layer</tspan></text>
<text
           id="text64"
           style="font-variant:normal;font-weight:normal;font-size:12.29160023px;font-family:'Times New Roman';-inkscape-font-specification:TimesNewRoman;writing-mode:lr-tb;fill:#000000;fill-opacity:1;fill-rule:nonzero;stroke:none"
           transform="matrix(0.838221,0,0,-1,184.675,473.72)"><tspan
             id="tspan66"
             y="0"
             x="0 6.1618948 9.8839731 16.03388 22.195776 28.347534 34.509445 36.945236 40.669472 44.250546 47.974781 54.13068 56.707569 64.008751 66.444542 71.453194 75.177414 78.75631 82.474518 88.636429 94.792328 98.516548 102.24076 108.39666 114.55257 119.41805 121.99493 124.42262 130.58453 135.45384 139.1759 145.33366 153.92534 158.93781 162.66202 167.53134 171.2534 176.11888 178.5526 181.12947 184.70837 188.43259 194.59033 200.74625 204.46645 206.90016 210.62231">probability distributions, parameters, flags...</tspan></text>
</g><g
         transform="scale(1.00391,-0.99609)"
         id="g68"><path
           id="path70"
           style="fill:none;stroke:#000000;stroke-width:8.56849957;stroke-linecap:round;stroke-linejoin:round;stroke-miterlimit:10;stroke-dasharray:none;stroke-opacity:1"
           d="m 1506.11,-4280.4 -50.8,8.03 -42.83,26.1 -25.9,43.17 -8.97,51.2 0,205.8 8.97,42.17 25.9,43.17 42.83,26.1 50.8,17.07 1929.46,0 50.8,-17.07 42.83,-26.1 25.9,-43.17 8.97,-42.17 0,-205.8 -8.97,-51.2 -25.9,-43.17 -42.83,-26.1 -50.8,-8.03 -1929.46,0 z" /></g><g
         transform="scale(1.00391,-0.99609)"
         id="g72"><path
           id="path74"
           style="fill:none;stroke:#000000;stroke-width:8.56849957;stroke-linecap:round;stroke-linejoin:round;stroke-miterlimit:10;stroke-dasharray:none;stroke-opacity:1"
           d="m 1420.45,-4794.41 -67.74,17.06 -60.76,34.14 -33.87,51.2 -8.96,68.26 0,762.99 8.96,60.23 33.87,60.24 60.76,34.13 67.74,17.07 2100.78,0 59.77,-17.07 59.77,-34.13 33.86,-60.24 17.93,-60.23 0,-762.99 -17.93,-68.26 -33.86,-51.2 -59.77,-34.14 -59.77,-17.06 -2100.78,0 z" /></g><g
         transform="scale(1.00391,-0.99609)"
         id="g76"><path
           id="path78"
           style="fill:none;stroke:#000000;stroke-width:8.56849957;stroke-linecap:round;stroke-linejoin:round;stroke-miterlimit:10;stroke-dasharray:none;stroke-opacity:1"
           d="m 1283.98,-5308.42 -68.73,8.03 -51.8,34.13 -33.87,60.24 -16.93,68.26 0,1405.5 16.93,60.24 33.87,60.23 51.8,34.13 68.73,17.07 2365.75,0 59.77,-17.07 59.76,-34.13 34.87,-60.23 16.93,-60.24 0,-1405.5 -16.93,-68.26 -34.87,-60.24 -59.76,-34.13 -59.77,-8.03 -2365.75,0 z" /></g><g
         transform="scale(1.00391,-0.99609)"
         id="g80"><path
           id="path82"
           style="fill:none;stroke:#000000;stroke-width:8.56849957;stroke-linecap:round;stroke-linejoin:round;stroke-miterlimit:10;stroke-dasharray:none;stroke-opacity:1"
           d="m 1163.45,-5823.44 -68.73,9.04 -59.77,34.13 -33.86,60.24 -8.969,68.27 0,2048 8.969,60.24 33.86,60.23 59.77,34.14 68.73,17.06 2614.78,0 59.76,-17.06 59.77,-34.14 34.86,-60.23 16.94,-60.24 0,-2048 -16.94,-68.27 -34.86,-60.24 -59.77,-34.13 -59.76,-9.04 -2614.78,0 z" /></g><g
         id="g84"><g
           clip-path="url(#clipPath88)"
           id="g86"><g
             transform="scale(1.00391,-0.99609)"
             id="g92"><path
               id="path94"
               style="fill:none;stroke:#000000;stroke-width:8.56849957;stroke-linecap:round;stroke-linejoin:round;stroke-miterlimit:10;stroke-dasharray:none;stroke-opacity:1"
               d="m 1129.58,-6388.65 -59.76,9.04 -42.84,25.1 -34.859,51.2 -7.969,60.23 0,145.57 7.969,52.21 34.859,51.2 42.84,25.09 59.76,17.07 2674.55,0 50.8,-17.07 51.8,-25.09 25.89,-51.2 16.94,-52.21 0,-145.57 -16.94,-60.23 -25.89,-51.2 -51.8,-25.1 -50.8,-9.04 -2674.55,0 z" /></g></g></g><g
         transform="scale(8.33333,8.33333)"
         id="g96"><text
           id="text98"
           style="font-variant:normal;font-weight:normal;font-size:12px;font-family:'Times New Roman';-inkscape-font-specification:TimesNewRoman;writing-mode:lr-tb;fill:#000000;fill-opacity:1;fill-rule:nonzero;stroke:none"
           transform="matrix(0.99941,0,0,-1,160.07975,384.56)"><tspan
             id="tspan100"
             y="0"
             x="0 7.3262396 10.690235 16.693781 23.295853 28.580805 33.865757">Figure </tspan></text>
<text
           id="text102"
           style="font-variant:normal;font-weight:normal;font-size:12px;font-family:'Times New Roman';-inkscape-font-specification:TimesNewRoman;writing-mode:lr-tb;fill:#000000;fill-opacity:1;fill-rule:nonzero;stroke:none"
           transform="matrix(0.99941,0,0,-1,197.04,384.56)"><tspan
             id="tspan104"
             y="0"
             x="0 4.6808395 9.3616791 13.323924 19.327471 22.329245">II-1. </tspan></text>
<text
           id="text106"
           style="font-variant:normal;font-weight:normal;font-size:12px;font-family:'Times New Roman';-inkscape-font-specification:TimesNewRoman;writing-mode:lr-tb;fill:#000000;fill-opacity:1;fill-rule:nonzero;stroke:none"
           transform="matrix(0.99941,0,0,-1,222.35995,384.56)"><tspan
             id="tspan108"
             y="0"
             x="0 8.6430845 12.60533 17.890282 23.893827 27.257824 30.621819 36.026825 41.311764 44.675758 50.679306 54.641537 60.046543 63.048302 69.051849 73.014084 76.015839 79.379837 85.383385 90.66832 93.670074 104.23439 110.23794 116.36156 121.6465 125.01049 128.01225 135.3385 141.46213 146.74706 152.75061 158.03554 164.15916 170.04263 175.32758 178.4494 184.9314 191.05501 195.13731 204.38478 209.66972">Architecture of the Model Exchange Format</tspan></text>
<text
           id="text110"
           style="font-variant:normal;font-weight:normal;font-size:12px;font-family:'Times New Roman';-inkscape-font-specification:TimesNewRoman;writing-mode:lr-tb;fill:#000000;fill-opacity:1;fill-rule:nonzero;stroke:none"
           transform="matrix(0.99941,0,0,-1,88.560541,343.16)"><tspan
             id="tspan112"
             y="0"
             x="0">–</tspan></text>
<text
           id="text114"
           style="font-variant:normal;font-weight:normal;font-size:12px;font-family:'Times New Roman';-inkscape-font-specification:TimesNewRoman;writing-mode:lr-tb;fill:#000000;fill-opacity:1;fill-rule:nonzero;stroke:none"
           transform="matrix(0.99941,0,0,-1,106.56055,343.16)"><tspan
             id="tspan116"
             y="0"
             x="0 7.3262472 13.329787 18.614738 24.858423 28.820667 32.184662 36.146908 40.827747 44.191742 47.193516 53.437199 59.440746 63.402992 69.646675 74.327515 77.691513 83.695061 88.980011 94.983559 100.26851 104.94935 108.31335 111.67734 116.96229 119.96407 126.20773 129.57173 134.97676 140.74016 146.14517 150.10739 156.35107 159.71506 164.3959 170.63371 176.64311 182.64081 188.65021 194.65376 198.01776 203.30269 206.66669 211.95163 217.95517 224.19884 232.84195 236.20593 239.56993 245.57349 251.81712 257.07199 260.436 263.79999 270.04367 274.72449 278.0885 284.09204 289.37698 295.38052 300.66547 305.34631 308.7103 312.07431 317.35922 323.60291 328.88785 333.56281 339.57224 344.85718 350.14209 353.5061 358.18695 364.4306 370.43414 374.39639 380.64005 389.88754 395.89105 401.89456 407.17953 410.54355 415.2244 418.58841">The first, or stochastic, layer is populated with all stochastic aspects of models: </tspan><tspan
             id="tspan118"
             y="13.8"
             x="-0.0060000001 6.0034027 9.9656477 15.963325 21.972734 27.251823 33.261234 36.625229 39.989223 43.353218 46.837284 52.600689 58.7243 64.727852 68.091843 72.772682 76.136681 80.098923 83.457054 89.466461 95.470009 98.834007 102.19801 108.20155 114.20509 118.88593 125.00954 128.97179 134.97533 138.93758 145.0612 148.4252 154.42876 159.71368 165.83728 169.91959 175.20453 178.56853 181.93251 187.93607 191.8983 197.18323 203.42691 207.38913 212.67407 216.03807 221.323 226.00385 232.12744 238.25107 242.21329 248.3 254.30939 259.59436 264.27518 267.63919 272.92413 279.04773 284.33267 290.45627 295.74121 301.74475 305.10876 309.78958 312.79135 318.90909 324.91852 330.20343 334.28574 339.69077 348.93823 354.22318 357.70721 362.99216 366.95441 371.63522 377.75885 383.76239 387.72461 393.84821 397.21225 403.21576 408.50073 413.30164 418.58661">probability distributions for the failure rates of basic events, parameters of these </tspan><tspan
             id="tspan120"
             y="27.6"
             x="-0.001 6.0025396 9.3665419 14.047381 17.411377 21.373621 24.731754 30.741163 36.744709 40.108707 43.472702 49.476246 55.479794 60.160633 63.162407 68.447357 74.450905 80.454453 83.45623 89.459778 92.823769 97.504608 100.86861 104.83085 108.18898 114.19839 120.08186 123.44585 126.80984 132.81339 138.81694 143.4978 146.49956 152.50311 156.46535 159.4671 162.8311 168.83464 174.11958 178.80042 184.08536 187.08125 193.09067 198.3756 202.33783 207.74284 217.11038 222.39532 225.75931 231.04425 235.00648 239.66 242.78183 245.78358 249.74579 253.10979 258.5148 264.2782 268.95905 271.96078 274.96255 277.96436">distributions and distributions of these parameters, flags... </tspan><tspan
             id="tspan122"
             y="41.400002"
             x="-18.011999">–</tspan></text>
<text
           id="text124"
           style="font-variant:normal;font-weight:normal;font-size:12px;font-family:'Times New Roman';-inkscape-font-specification:TimesNewRoman;writing-mode:lr-tb;fill:#000000;fill-opacity:1;fill-rule:nonzero;stroke:none"
           transform="matrix(0.99941,0,0,-1,106.5592,301.76)"><tspan
             id="tspan126"
             y="0"
             x="0 7.3262472 13.329787 18.614738 23.537643 28.218483 33.623505 38.908459 44.912006 50.91555 56.919098 59.920872 64.843773 70.847321 74.929642 79.852547 83.814789 89.099739 95.103287 98.467285 101.83128 106.75418 110.11818 114.20049 119.60551 124.89045 129.81335 133.17735 138.70244 144.46585 149.87086 153.83308 156.83485 161.75774 165.12173 169.80258 174.7196 180.729 186.7267 192.7361 198.73965 202.10364 207.38858 210.75258 216.03752 222.16113 227.08403 235.72713 239.09113 242.45511 248.45863 253.349 256.71298 262.83661 268.60001 271.96402 277.36902 282.65396 286.01794 290.94086 296.22577 302.3494 311.591 317.60043 323.60397 329.60751 334.89246 340.896 344.25998 348.94083 353.86374 359.98734 364.06964 368.99252 372.95477 378.23972 384.24326 387.60727 390.97131 395.8942 399.25821 403.22046 408.62549 413.91046 418.59128">The second, or fault tree layer, is populated with logical components of fault trees </tspan><tspan
             id="tspan128"
             y="13.8"
             x="0 4.0823154 9.9657841 15.25073 18.614725 23.899677 28.580517 31.582289 35.778908 41.788319 47.073273 51.754112 55.238178 60.523129 64.725616 70.010567 76.134186 81.419136 87.422684 90.786674 95.467514 98.469292 102.67178 108.67532 114.67887 120.80248 125.48331 130.76826 134.97075 140.25571 146.25926 151.5442 157.54774 160.91174 165.59258 169.55481 172.67664 181.08159 188.40784 194.41139 197.77538 202.45622 206.65869 210.02269 215.54776 221.31117 226.71619 230.67841 234.88089 238.24487 243.02299 247.22543 250.58943 256.59299 261.87793 266.08038 271.36533 277.36887 281.45117 286.73611 290.93857 296.94214 301.02444 305.2269 311.94904 318.55109 327.31427 331.51672 340.76419 346.76776 352.89136 358.1763 361.66037 366.34122 369.34296 377.74796 385.07419 391.07773 396.36267 400.56516 403.92917 412.57227 418.57578">(gates, basic events, house events). This layer is the core of PSA models. The two </tspan><tspan
             id="tspan130"
             y="27.6"
             x="0 3.9622447 7.3262472 11.288492 15.969332 19.333326 22.3351 25.699095 31.104118 36.867523 42.272545 46.234791 50.91563 53.917404 59.322426 64.607376 70.610924 73.606834 79.616249 84.901199 87.902969 93.906517 98.587357 103.87231 109.87586 112.87763 116.24163 122.36524 125.367 128.731 133.41183 139.41539 142.77937 148.06432 151.42831 154.79231 160.79585 166.79941 169.80116 175.80467 182.40674 188.41028 197.65776 202.94269 206.06451 211.34946 217.47308 220.83707 225.51791 228.88191 232.217 238.22055 244.10402 247.10576 250.46974 256.4733 262.47684 265.84085 270.52167 273.52344 276.88742 286.12906 292.13846 295.50244 300.78738 310.03485 315.31979 321.32333 324.68732 327.68909 331.0531 337.05664 342.46164 351.70911 354.71088 360.71442 366.83804 370.32211 376.08551 379.08731">first layers can be used in isolation. Some existing tools implement them only. </tspan><tspan
             id="tspan132"
             y="41.400002"
             x="-18.011">–</tspan></text>
<text
           id="text134"
           style="font-variant:normal;font-weight:normal;font-size:12px;font-family:'Times New Roman';-inkscape-font-specification:TimesNewRoman;writing-mode:lr-tb;fill:#000000;fill-opacity:1;fill-rule:nonzero;stroke:none"
           transform="matrix(0.99941,0,0,-1,106.55884,260.36)"><tspan
             id="tspan136"
             y="0"
             x="0 7.3262472 13.329787 18.614738 23.177439 26.541433 32.544979 35.908978 39.87122 45.874767 48.876541 53.43924 59.562859 63.525105 68.207863 77.455338 82.740288 86.104286 91.509308 95.47155 98.835548 104.95916 110.72257 114.20663 119.61166 124.89661 128.2606 131.26237 135.82507 139.18907 144.71416 150.47755 155.88257 159.8448 164.40747 167.77147 172.4523 177.00912 183.01854 189.01622 195.02563 201.02917 204.39317 209.67812 213.16217 218.44711 224.45067 229.01334 234.29828 240.42189 246.42545 251.06799 254.43199 258.39423 264.39777 269.68271 273.04669 277.72754 282.29022 285.65421 289.01822 295.02176 300.3067 304.86938 310.1543 316.27792 325.64548 334.89294 340.89648 347.02008 351.58276 356.86768 362.27271 368.27625 372.95709 378.24203 382.92477 388.80829 392.77051 398.77402 404.77167 410.78107 415.46188 418.58374">The third, or meta-logical, layer is populated constructs like common cause groups, </tspan><tspan
             id="tspan138"
             y="13.8"
             x="0 6.0035396 11.288485 14.652487 19.937439 23.301434 28.586386 31.58816 34.952156 40.237106 44.319424 53.566895 58.247734 61.249508 64.251282 68.333595 73.618546 78.903503 84.907051 90.910591 96.31562 100.51801 106.28141 109.28318 113.24543 119.24898 122.73304 128.01797 132.69882 135.70059 139.06459 145.06813 150.35307 153.71707 156.71883 162.00377 165.96599 171.25093 174.25269 180.25624 185.05714 190.34209 196.34563 199.3474 202.71138 208.71494 211.83676 217.60017 220.96416 227.08778 232.37271 235.339 239.30122 242.78529 248.07021 254.07375 260.0773 264.03952 268.72037 271.72214 275.08612 281.08966 284.09143 288.05365 293.33859 299.34213 302.70615 306.07013 309.0719 312.43588 316.3981 321.80313 327.08807 331.76889 334.77066 337.77243 340.77423">delete terms, recovery rules that are used to give flavors to fault trees... </tspan><tspan
             id="tspan140"
             y="27.6"
             x="-18.01">–</tspan></text>
<text
           id="text142"
           style="font-variant:normal;font-weight:normal;font-size:12px;font-family:'Times New Roman';-inkscape-font-specification:TimesNewRoman;writing-mode:lr-tb;fill:#000000;fill-opacity:1;fill-rule:nonzero;stroke:none"
           transform="matrix(0.99941,0,0,-1,106.55948,232.76)"><tspan
             id="tspan144"
             y="0"
             x="0 7.3262472 13.329787 18.614738 23.777786 27.740032 33.743572 39.74712 43.709366 47.07336 53.076908 56.078682 61.24173 67.245277 71.20752 76.370567 81.655518 87.659065 92.944023 98.947571 102.31156 107.47461 110.83861 114.92092 120.32594 125.61089 128.61267 133.77571 137.13971 142.54472 148.30812 153.71313 157.67537 162.83839 166.20239 170.88324 176.04041 182.04982 188.0475 194.05692 200.06046 203.42445 208.70938 212.07338 217.35832 223.36186 228.5249 237.168 240.65207 244.01607 250.01961 255.151 260.43594 266.43948 271.72443 277.72797 281.09195 286.25497 289.61896 293.58121 298.86612 304.15106 308.83191 311.83368 316.9967 320.36069 326.36426 329.72824 333.09222 336.45624 341.74118 345.10516 348.46915 354.59277 360.47626 365.63928 370.92422 376.92776 382.21271 388.21628 391.58032 396.26114 401.42419 406.70917 412.71268 418.59613">The fourth, or event tree, layer is populated with event trees, initiating events and </tspan><tspan
             id="tspan146"
             y="13.8"
             x="0 5.284945 11.288485 17.292032 21.972872 27.257824 33.261372 39.264919 44.54987 50.553417 55.958439 61.243393 65.924232 68.926003 75.890121 83.216362 89.219902 94.50486 97.986916 108.55123 114.55478 120.6784 125.96333 129.32733 132.80939 140.13564 146.25926 151.54419 157.54774 162.83267 168.9563 174.7197 180.00464 183.60675 190.08875 196.21236 200.17459 209.54213 214.82707 218.19106 221.67311 226.35394 231.63889 236.92381 241.72473 245.20677 250.49168 256.49524 261.78015 267.78372 271.12 274.60205 277.96603 281.92825 287.2132 292.49814 297.17899 300.66101 305.94595 310.6268 314.10886 318.19113 324.07462 328.03687 333.31592 339.32535 345.32889 348.81296 354.0979 359.38281 362.86688 366.82913 370.3053 376.3147 380.27695 386.40057 392.28403 396.24628 401.65131 410.89877 415.57962 418.58136">consequences. The Model Exchange Format sees event trees as (graphical) programs. </tspan><tspan
             id="tspan148"
             y="27.48"
             x="0 7.3262472 13.329787 18.614738 22.096796 27.381748 33.505367 38.790318 44.075272 50.078815 53.442814 56.806808 62.810356 68.813904 72.295959 78.299507 82.261749 85.743805 90.424644 96.428192 101.71314 107.71669 111.19875 116.4837 119.83982 125.84922 129.81146 135.93509 141.81856 145.78079 151.18579 160.43327 163.90945 169.91885 173.88109 179.88463 185.88818 191.89172 197.29674 202.58168 207.26251 210.74455 216.0295 219.51154 224.19238 229.47731 232.84131 236.32335 242.3269 246.28909 249.77113 254.42999 259.71494 265.71848 271.72205 277.00696 283.01053 288.29544 293.58038 298.26123 301.263 304.74503 308.10904 311.11078 316.39572 319.39749 322.87952 328.16446 331.64651 336.32733 341.61227 344.97629 348.45831 352.42056 357.70547 361.30759 367.31116 370.67514 375.35013 378.71997 384.72351 390.72711 396.01205 399.3761 402.74011 408.74362 414.74716 418.58932">The execution of such a program produces a set of sequences, i.e. a set (a disjunction) </tspan><tspan
             id="tspan150"
             y="41.279999"
             x="0 6.0035396 9.9657841 14.648544 22.693378 28.696926 34.700474 38.064468 43.349419 48.634373 54.63792 59.320679 63.282925 69.286469 73.36879 82.616257 88.619804 91.983803 97.388824 102.67377 105.67555 115.04107 121.76321 125.72546 131.72314 137.73254 143.01163 149.02103 152.38503 155.74902 159.11302 162.59709 168.36049 173.04324 179.04678 182.41078 187.09161 190.45561 194.41785 197.77597 203.78539 209.78894 213.15292 216.51692 222.52048 228.52402 233.20486 237.8876 243.17255 247.13478 252.38901 257.07175 262.35669 265.72067 270.40149 276.40503 281.0878 286.37271 292.37628 295.74026 299.10425 304.38919 309.67413 313.1582 318.44315 324.44669 329.12943 337.77252 343.77609 347.14008 350.50406 355.789 360.59183 369.23492 374.51987 377.88385 383.76733 387.13135 393.25494 399.1384 403.82114 407.18518 413.18869 418.59372">of Boolean formulae. Probability distributions are also collected while walking the </tspan><tspan
             id="tspan152"
             y="55.080002"
             x="0 5.284945 11.288485 16.573437 22.576984 25.940979 28.942753 32.306747 36.268993 41.553944 46.838898 49.840668">event tree. </tspan><tspan
             id="tspan154"
             y="68.879997"
             x="-18.010599">–</tspan></text>
<text
           id="text156"
           style="font-variant:normal;font-weight:normal;font-size:12px;font-family:'Times New Roman';-inkscape-font-specification:TimesNewRoman;writing-mode:lr-tb;fill:#000000;fill-opacity:1;fill-rule:nonzero;stroke:none"
           transform="matrix(0.99941,0,0,-1,106.55952,163.88)"><tspan
             id="tspan158"
             y="0"
             x="0 7.3262472 13.329787 18.614738 22.57708 26.539324 29.903318 33.865562 37.229557 43.233105 46.234879 50.19722 56.200768 60.16301 64.125351 68.087593 73.366684 79.376091 85.379639 89.341888 92.705879 96.668221 100.03222 105.43724 111.20065 116.60567 120.68798 123.68974 127.65208 131.01608 135.69691 139.65341 145.66283 151.66051 157.66991 163.67346 167.03746 172.32239 175.68639 180.97133 186.97487 190.93719 199.58029 202.94429 206.30829 212.19176 216.15408 221.43903 227.44257 233.44612 238.12695 241.342 245.30423 251.30775 256.59268 259.9567 264.63751 268.59985 271.96384 277.96738 281.92972 286.61057 289.97455 295.97809 299.94034 305.22525 309.18759 313.14981 318.43475 323.1156 329.11914 332.48312 335.84714 340.52798 344.4903 350.49384 354.45609 358.4184 363.58328 368.86819 372.23221 377.51715 383.52069 386.8847 392.16968 395.53369 398.89774 404.90125 410.90475 415.5856 418.58737">The fifth, or report layer, is populated with constructs to store results of calculations. </tspan><tspan
             id="tspan160"
             y="13.8"
             x="0 7.3262472 13.329787 16.693781 21.374622 25.697178 29.061172 35.06472 40.34967 43.713665 49.717213 55.72076 61.005714 65.686554 70.009109 75.29406 81.297607 87.301155 91.981995 95.345993 99.308235 105.31178 110.59673 113.96073 118.76164 123.08418 126.44818 132.45172 136.77428 142.77783 148.06276 152.74361 158.02855 161.99077 165.34891 171.35832 176.76332 181.08586 186.3708 191.65575 195.1398 200.42474 206.4283 209.79228 215.07722 218.44122 221.80522 227.80876 233.8123 238.49315 242.81569 246.746 252.74954 258.03448 261.9967 266.67755 270.04153 276.0451 282.04865 286.37119 292.37473 296.45703 300.77957 304.14359 310.14713 315.43207 319.87466 329.12213 335.12567 341.12924 346.41415 349.7782 352.77994 357.22256 363.2261 367.90695 373.19186 379.19543 383.51797 388.80295 394.92651 400.80997 404.17398 410.17752 415.46246 418.58432">This includes constructs to describe calculations (version of the model, used engine, </tspan><tspan
             id="tspan162"
             y="27.6"
             x="0 6.0035396 10.68438 15.969324 21.972872 27.736279 33.021233 39.02478 42.388775 48.392319 52.474636 56.436882 61.117722 64.119492 69.882904 73.246895 78.531853 82.614166 88.497643 93.902664 97.266663 102.55161 108.55516 114.43863 120.44218 124.4044 130.40794 136.40565 142.41505 148.17844 154.18199 158.2643 164.02768 169.31261 175.31616 181.3197 186.00055 191.28548 197.28903 203.41264 208.69759 214.70113 219.98607 225.27101 229.95184 233.07368 238.95714 244.24207 249.52698 252.89098 258.1759 264.15601 267.51999 272.80493 276.16891 281.45386 287.57748 293.34088 299.34442 305.34796 310.6329 316.63644 320.00043 323.36444 326.72842 330.09244 335.37735 340.0582 343.05997 346.06171 349.06348 353.0257 358.90918 364.19409 370.19766 376.2012 381.96457 390.6077 395.89267 399.25671 402.74078 408.50418 413.78915 418.59006">used cutoffs, targeted group of consequences, calculated quantities...) and well as </tspan><tspan
             id="tspan164"
             y="41.400002"
             x="0 9.2474709 12.611473 18.615021 21.979015 31.346558 36.631508 39.995506 42.99728 48.28223 54.285778 57.649773 62.330612 67.615562 70.979561 75.6604 78.66217 83.947128 89.950668 95.954216 98.955994 104.95954 108.32353 114.32708 119.7321 123.69434 126.69611 130.65836 135.9433 140.62418 146.62772 149.99171 153.35571 158.03654 161.03831">minimal cutsets and other results. </tspan><tspan
             id="tspan166"
             y="69"
             x="-36.021301 -28.695053 -22.691513 -19.327511 -14.646671 -10.324115 -6.3618703 -2.9978681 3.0056715 8.290616 12.613173 15.977175 21.382198 27.145603 32.430557 36.392799 41.073639 45.396194 50.80122 54.763462 60.048416 66.051964 69.415955 72.779953 78.064903 83.349854 86.833923 92.837456 96.799698 102.08465 106.40721 112.41075 117.69571 121.05386 127.06325 131.74409 136.06665 139.43066 145.43422 149.75676 155.7603 161.76385 167.7674 173.05234 177.01457 181.6954 185.0594 190.34435 196.34789 202.35144 206.67398 215.2867 221.29025 226.57518 229.93918 234.26172 237.62572 243.62927 248.9142 253.23674 259.2403 262.60428 266.56653 270.52875 275.81369 279.77591 285.06085 291.06439 294.42841 298.75095 304.03589 307.39987 312.80487 322.05234 327.45737 333.46091 336.82489 341.50574 345.82828 351.83185 355.79407 360.11661 365.40155 369.72409 378.97156 384.9751 390.9787 396.26364 399.62769 403.95023 409.2352 413.19742 418.60245">This five layers architecture helps to understand what the different elements of a model are </tspan><tspan
             id="tspan168"
             y="82.800003"
             x="-36.021301 -30.736355 -24.732815 -18.729277 -13.686299 -5.0432153 0.96032429 6.2452693 9.609271 14.652247 18.016243 24.019789 29.304741 32.668736 36.630981 41.673958 45.756271 51.041225 55.716202 61.725613 67.010567 72.295517 75.659508 79.023506 85.147125 90.43206 95.475037 99.437279 105.44084 108.80483 114.08979 118.77063 123.81361 129.09856 133.18088 138.46582 141.46758 146.63062 150.47278 156.47632 161.51929 166.80423 171.84718 180.49028 186.61391 190.57614 196.57968 199.58144 204.6244 207.9884 211.3524 216.36771 219.73169 224.41254 229.45551 232.81949 238.82304 244.10797 249.14508 255.15448 260.43942 265.72437 271.60196 277.61139 283.61493 289.73856 295.0235 300.06644 306.07001 310.03223 315.0752 318.43918 324.44272 329.84775 334.89072 345.45502 351.45853 357.4621 362.74701 366.11102 371.15399 378.48022 384.60385 389.88882 395.89233 401.17731 407.3009 413.18433 418.58939">and what their respective roles are. In a word, it is the backbone of the Model Exchange </tspan></text>
</g></g></g></svg>